<svg width="119" height="118" viewBox="0 0 119 118" fill="none" xmlns="http://www.w3.org/2000/svg">
<g clip-path="url(#clip0_1_161)">
<mask id="mask0_1_161" style="mask-type:luminance" maskUnits="userSpaceOnUse" x="0" y="0" width="119" height="118">
<path d="M0.798828 0H118.799V118H0.798828V0Z" fill="white"/>
</mask>
<g mask="url(#mask0_1_161)">
<path d="M59.5177 117.438C91.9472 117.438 118.236 91.1483 118.236 58.7188C118.236 26.2893 91.9472 0 59.5177 0C27.0881 0 0.798828 26.2893 0.798828 58.7188C0.798828 91.1483 27.0881 117.438 59.5177 117.438Z" fill="white"/>
<path d="M45.8273 52.5048C36.6417 49.2708 36.1255 41.7677 36.1255 41.7677L44.9211 33.4893L66.6534 41.7677L74.9318 54.9625L68.723 66.0868C58.5473 68.0706 37.9582 72.1407 37.0105 72.5546C36.0637 72.9695 26.9408 61.8185 34.444 60.0079C34.444 60.0079 55.011 55.7396 45.8273 52.5048Z" fill="#F49819"/>
<path fill-rule="evenodd" clip-rule="evenodd" d="M95.2795 54.4058C95.698 56.303 94.494 58.3883 92.3986 59.8016C94.4489 61.2802 95.5855 63.4033 95.1071 65.2867C94.4443 67.8984 90.9255 69.0618 87.249 67.8846C84.5249 67.0115 82.4783 65.1005 81.8699 63.1056L76.6917 63.0226L76.7931 56.6497L81.8284 56.7299C82.2571 54.5506 84.4963 52.4201 87.5071 51.56C91.2195 50.4998 94.6996 51.7739 95.2795 54.4058ZM91.7708 55.7398C91.7795 56.0441 91.727 56.3471 91.6165 56.6308C91.506 56.9146 91.3398 57.1733 91.1275 57.3916C90.9153 57.6099 90.6615 57.7835 90.381 57.902C90.1006 58.0205 89.7992 58.0816 89.4947 58.0816C89.1902 58.0816 88.8888 58.0205 88.6084 57.902C88.3279 57.7835 88.0741 57.6099 87.8619 57.3916C87.6496 57.1733 87.4834 56.9146 87.3729 56.6308C87.2624 56.3471 87.2099 56.0441 87.2186 55.7398C87.2355 55.1473 87.4827 54.5848 87.9077 54.1717C88.3327 53.7586 88.902 53.5275 89.4947 53.5275C90.0874 53.5275 90.6567 53.7586 91.0817 54.1717C91.5067 54.5848 91.7539 55.1473 91.7708 55.7398ZM89.4938 65.7559C89.7981 65.7646 90.1011 65.7121 90.3849 65.6017C90.6686 65.4912 90.9273 65.3249 91.1456 65.1127C91.3639 64.9005 91.5375 64.6466 91.656 64.3662C91.7745 64.0857 91.8356 63.7843 91.8356 63.4798C91.8356 63.1754 91.7745 62.874 91.656 62.5935C91.5375 62.313 91.3639 62.0592 91.1456 61.847C90.9273 61.6348 90.6686 61.4685 90.3849 61.358C90.1011 61.2475 89.7981 61.1951 89.4938 61.2037C88.9013 61.2206 88.3388 61.4678 87.9257 61.8928C87.5126 62.3178 87.2815 62.8871 87.2815 63.4798C87.2815 64.0725 87.5126 64.6419 87.9257 65.0669C88.3388 65.4919 88.9013 65.7391 89.4938 65.7559ZM60.026 67.5886C60.0275 67.4527 60.0022 67.3179 59.9515 67.1918C59.9008 67.0657 59.8258 66.9508 59.7308 66.8537C59.6357 66.7566 59.5225 66.6791 59.3975 66.6258C59.2725 66.5724 59.1382 66.5442 59.0023 66.5428C58.7279 66.5398 58.4635 66.646 58.2673 66.838C58.0712 67.03 57.9594 67.2921 57.9564 67.5665C57.926 70.4879 57.9362 73.4112 57.9472 76.3271C57.9518 77.7818 57.9564 79.2338 57.9564 80.6829C57.9564 80.7807 57.9435 80.8858 57.9159 81.0757L57.9122 81.0959L57.9039 81.1559C57.6485 81.1651 57.3996 81.1817 57.1636 81.1974L57.1461 81.1983C56.7396 81.225 56.3699 81.2481 56.003 81.2481H54.6266C54.5225 81.2481 54.4257 81.2351 54.2597 81.2112L54.0744 81.1872C53.8329 81.1549 53.4687 81.1135 53.0788 81.1835C52.7091 81.2481 52.3127 81.2388 51.7882 81.2204L51.7458 81.2185C51.2664 81.202 50.6681 81.1808 50.068 81.2868C49.6854 81.355 49.3028 81.3882 48.8972 81.4158L48.5911 81.4361C48.2814 81.4555 47.9495 81.4767 47.6296 81.5099C46.7381 81.603 45.7702 81.8086 44.7957 82.4566L44.7404 82.4935C44.4574 82.6806 43.8001 83.1148 43.2968 83.6256C43.0359 83.8901 42.716 84.2718 42.5657 84.7392C42.4718 85.0215 42.4534 85.3234 42.5123 85.615C42.5814 85.9469 42.7501 86.2299 42.9769 86.4557C43.2857 86.7645 43.6729 86.9416 44.0149 87.0513C44.3662 87.1637 44.7487 87.2283 45.1202 87.2661L45.1479 87.2688C45.0927 87.354 45.0431 87.4427 44.9995 87.5343C44.8059 87.9427 44.7248 88.4608 44.757 88.9282C44.7865 89.3615 44.9396 90.0621 45.5535 90.4871C46.0606 90.8374 46.6008 90.9204 47.0387 90.924C47.0855 91.3002 47.2591 91.6491 47.531 91.9132C47.8407 92.2202 48.2288 92.3972 48.5717 92.506C48.9248 92.6185 49.3074 92.683 49.6808 92.7199L49.7121 92.7236C49.6577 92.8065 49.6079 92.8941 49.5646 92.9863C49.3692 93.3947 49.288 93.9137 49.3203 94.382C49.3507 94.8162 49.5047 95.5187 50.1214 95.9418C50.8912 96.4701 51.7356 96.388 52.1883 96.3438C52.2565 96.3373 52.3155 96.3318 52.3643 96.329C52.4353 96.3253 52.5045 96.3189 52.5736 96.3115C52.5724 96.3447 52.5718 96.3779 52.5718 96.4111C52.5718 97.4841 53.1129 98.3387 53.9509 98.784C54.7529 99.2089 55.7264 99.2136 56.5976 98.8679C57.9942 98.3147 58.8737 97.1209 59.5393 96.2175L59.555 96.1972C59.8205 95.8358 60.4077 95.3186 60.8567 95.0052C61.1563 94.7959 61.3222 94.689 61.4789 94.6125C61.6209 94.5433 61.785 94.4843 62.0763 94.4198C63.2388 94.1635 64.4778 94.1561 65.8191 94.1561C66.0936 94.1561 66.3568 94.0471 66.5508 93.8531C66.7449 93.659 66.8539 93.3958 66.8539 93.1213C66.8539 92.8469 66.7449 92.5837 66.5508 92.3896C66.3568 92.1956 66.0936 92.0865 65.8191 92.0865H65.808C64.5054 92.0865 63.0452 92.0865 61.6301 92.3991C61.2273 92.4876 60.8972 92.5926 60.5681 92.754C60.2547 92.9079 59.9726 93.0988 59.672 93.308C59.1327 93.6851 58.3427 94.3525 57.8882 94.9692C57.1655 95.9492 56.6068 96.6388 55.8343 96.9439C55.4397 97.1006 55.1088 97.0554 54.9216 96.9559C54.7723 96.8766 54.6414 96.7328 54.6414 96.4111C54.6414 96.0764 54.8082 95.7473 55.1963 95.1711L55.2351 95.1158C55.4093 94.9821 55.5605 94.8485 55.6914 94.7332L55.7006 94.7259C55.7679 94.6659 55.8232 94.6005 55.837 94.5839L55.8389 94.5821C55.9864 94.403 56.1243 94.2162 56.2519 94.0225C56.2768 93.9847 56.309 93.9321 56.3395 93.875C56.362 93.8319 56.382 93.7876 56.3994 93.7422L56.4012 93.7395C56.4492 93.6157 56.4739 93.4841 56.4741 93.3513V93.3486C56.4741 93.2711 56.4741 92.7789 56.027 92.4562C55.5153 92.0875 55.0009 92.3299 54.9179 92.3714C54.7704 92.4442 54.6635 92.5364 54.6137 92.5807C54.5582 92.6314 54.5052 92.6849 54.4552 92.7411C54.3053 92.9119 54.1676 93.093 54.0431 93.2831C53.9766 93.3806 53.9046 93.4742 53.8274 93.5634L53.808 93.5864L53.7988 93.5984C53.1507 94.0114 52.7303 94.2354 52.25 94.2622C52.1449 94.2677 52.0251 94.2778 51.9274 94.2852L51.8075 94.2944C51.6831 94.3036 51.5964 94.3064 51.5254 94.3036C51.4797 94.3024 51.4342 94.2959 51.3899 94.2843C51.3762 94.1509 51.3894 94.0161 51.4286 93.8879C51.4898 93.7837 51.5695 93.6915 51.6637 93.6159C51.7986 93.4987 51.9465 93.3973 52.1044 93.3136C52.2887 93.2168 52.4602 93.1107 52.5985 93.025L52.6077 93.0195C52.7561 92.9273 52.8714 92.8563 52.9885 92.7945C53.1572 92.7051 53.2899 92.5954 53.3692 92.5272L53.3793 92.518C53.4678 92.5005 53.5471 92.4839 53.6172 92.4673C53.7047 92.447 53.8126 92.4193 53.9122 92.3825C53.9509 92.3677 54.0541 92.329 54.1648 92.2571C54.3196 92.1583 54.4455 92.0203 54.5299 91.8571C54.6142 91.694 54.6539 91.5114 54.6449 91.328C54.6359 91.1445 54.5786 90.9667 54.4787 90.8126C54.3788 90.6584 54.24 90.5334 54.0763 90.4502C53.9939 90.4078 53.9066 90.3759 53.8163 90.3553C53.7381 90.3379 53.6585 90.3274 53.5785 90.3239C53.4644 90.3197 53.3503 90.3212 53.2364 90.3285C52.9793 90.3454 52.7303 90.4259 52.5118 90.5627C52.2934 90.5922 52.038 90.6226 51.7624 90.6456C51.1355 90.6991 50.4561 90.7176 49.8845 90.6604C49.6862 90.6428 49.4895 90.6098 49.2963 90.5618L49.3222 90.5359C49.6688 90.1866 50.1629 89.8602 50.4616 89.6629L50.5003 89.6371C51.0922 89.2462 51.6941 89.0997 52.4178 89.0241C52.6935 88.9964 52.9636 88.9789 53.2613 88.9605L53.6172 88.9374C54.0858 88.9105 54.5527 88.8581 55.0157 88.7807C55.3844 88.7162 55.7827 88.7263 56.3109 88.7447L56.3487 88.7466C56.8327 88.7632 57.4356 88.7844 58.0431 88.6774C58.1003 88.6682 58.1952 88.6673 58.4146 88.6959L58.5133 88.7088C58.6976 88.7346 58.9751 88.7733 59.2378 88.7733H60.6225C61.065 88.7733 61.4983 88.7457 61.8928 88.7208H61.9048C62.3141 88.6931 62.6829 88.6701 63.047 88.6701H63.059C63.1512 88.6701 63.2904 88.6701 63.4185 88.6562C63.6688 88.633 63.9069 88.5372 64.1035 88.3806C64.4003 88.1372 64.4935 87.8256 64.5276 87.6449C64.5501 87.5048 64.56 87.3628 64.5571 87.2209C64.5571 87.125 64.5709 87.0208 64.5985 86.8309L64.6013 86.8106C64.6262 86.6447 64.6612 86.4013 64.6612 86.1404C64.6612 84.6756 64.6566 83.2153 64.652 81.7578C64.641 78.853 64.6308 75.9574 64.6612 73.0517C64.6666 72.9134 64.6441 72.7754 64.5952 72.646C64.5463 72.5165 64.472 72.3982 64.3766 72.298C64.2812 72.1977 64.1666 72.1177 64.0397 72.0624C63.9128 72.0072 63.7762 71.978 63.6378 71.9766C63.4994 71.9751 63.3622 72.0014 63.2341 72.0538C63.1061 72.1063 62.9899 72.1839 62.8923 72.2821C62.7948 72.3803 62.7179 72.497 62.6663 72.6254C62.6146 72.7537 62.5892 72.8912 62.5916 73.0295C62.5674 75.9481 62.564 78.8669 62.5815 81.7855C62.587 83.2402 62.5916 84.6913 62.5916 86.1404C62.5916 86.2372 62.5787 86.3423 62.5511 86.5313L62.5474 86.5516L62.5382 86.6115C62.28 86.6217 62.0284 86.6383 61.7896 86.6539H61.7712C61.3637 86.6816 60.9912 86.7046 60.6225 86.7046H59.2369C59.1309 86.7046 59.0341 86.6908 58.8663 86.6678C58.8043 86.6592 58.7422 86.6509 58.6801 86.6429C58.4377 86.6115 58.0726 86.571 57.6826 86.6392C57.3093 86.7056 56.9101 86.6945 56.3828 86.6761L56.3404 86.6751C55.8583 86.6576 55.2581 86.6364 54.6552 86.7434C54.2699 86.8106 53.8854 86.8448 53.4761 86.8724L53.1691 86.8927C52.8466 86.9106 52.5245 86.9352 52.203 86.9664C51.3079 87.0586 50.3371 87.2642 49.3581 87.9114L49.3028 87.9473C49.0585 88.1077 48.5376 88.4497 48.0758 88.8655C47.9474 88.8209 47.8114 88.8021 47.6757 88.8102C47.5706 88.8148 47.4507 88.8249 47.353 88.8323L47.235 88.8415C47.1422 88.8499 47.0489 88.853 46.9557 88.8508C46.9118 88.85 46.8681 88.8438 46.8257 88.8323C46.8115 88.6978 46.8243 88.5617 46.8635 88.4322L46.8663 88.4258L46.8681 88.4221C46.8866 88.3852 46.9511 88.2884 47.0977 88.1603C47.236 88.0386 47.3964 87.9316 47.5356 87.8579C47.7199 87.7611 47.8896 87.6551 48.0269 87.5693L48.0361 87.5638C48.1846 87.4716 48.2989 87.4006 48.4141 87.3389C48.5505 87.2642 48.6779 87.1742 48.7939 87.0706L48.8031 87.0623C48.8898 87.0457 48.9691 87.0291 49.0382 87.0125C49.1258 86.9923 49.2327 86.9637 49.3323 86.9268C49.371 86.9121 49.4752 86.8733 49.5849 86.8005C49.7388 86.7015 49.864 86.5636 49.9477 86.4009C50.0314 86.2381 50.0708 86.0562 50.0618 85.8733C50.0528 85.6905 49.9958 85.5133 49.8966 85.3595C49.7973 85.2057 49.6593 85.0808 49.4964 84.9973C49.4138 84.9545 49.3262 84.9222 49.2355 84.9014C49.1573 84.8838 49.0777 84.873 48.9977 84.8692C48.884 84.8648 48.7701 84.8664 48.6566 84.8738C48.3996 84.8906 48.1509 84.9711 47.9329 85.1079C47.7153 85.1384 47.4627 85.1679 47.1899 85.1909C46.5667 85.2444 45.8919 85.2628 45.324 85.2066C45.1275 85.1889 44.9327 85.1559 44.7414 85.1079L44.769 85.0784C45.1147 84.7291 45.6052 84.4027 45.9029 84.2054L45.9407 84.1796C46.5289 83.7897 47.1253 83.644 47.8444 83.5684C48.1173 83.5398 48.3855 83.5223 48.6815 83.5039L49.0355 83.4818C49.4641 83.4523 49.9343 83.4126 50.4275 83.325C50.7944 83.2605 51.188 83.2697 51.7135 83.2882L51.7522 83.29C52.2325 83.3075 52.8336 83.3287 53.4393 83.2209C53.4946 83.2116 53.5868 83.2107 53.8052 83.2393L53.903 83.2522C54.0864 83.278 54.3639 83.3177 54.6257 83.3177H56.0039C56.4436 83.3177 56.8751 83.29 57.2678 83.2642H57.2798C57.6863 83.2375 58.0542 83.2144 58.4146 83.2144H58.4266C58.5188 83.2144 58.6571 83.2144 58.7861 83.1997C58.9115 83.1858 59.2037 83.1434 59.4711 82.9231C59.767 82.6788 59.8592 82.3672 59.8924 82.1874C59.9151 82.0479 59.9253 81.9066 59.9228 81.7652C59.9228 81.6675 59.9357 81.5624 59.9634 81.3734L59.967 81.3531C59.991 81.1872 60.026 80.9438 60.026 80.6829C60.026 79.2172 60.0214 77.7578 60.0168 76.2994C60.0058 73.3928 59.9956 70.4962 60.026 67.5886Z" fill="#1D2939"/>
<path d="M80.6469 45.3255L47.7184 24.4848C45.5936 23.14 42.7809 23.7723 41.4361 25.8971L37.2972 32.4366C35.9524 34.5614 36.5847 37.3741 38.7096 38.7189L55.1738 49.1392L71.6381 59.5596C73.7629 60.9044 76.5756 60.2721 77.9204 58.1472L82.0593 51.6078C83.4041 49.483 82.7718 46.6703 80.6469 45.3255Z" fill="#1D2939"/>
<path d="M72.9617 58.2362L33.9182 62.8504C31.4209 63.1455 29.6357 65.4092 29.9309 67.9064L30.5704 73.318C30.8655 75.8152 33.1292 77.6004 35.6264 77.3053L74.6699 72.6911C77.1672 72.396 78.9524 70.1323 78.6572 67.6351L78.0177 62.2235C77.7226 59.7263 75.4589 57.9411 72.9617 58.2362Z" fill="#1D2939"/>
<path fill-rule="evenodd" clip-rule="evenodd" d="M36.9822 43.0155C39.1606 44.2729 42.0461 43.3492 43.4289 40.9532C44.8117 38.5563 44.1664 35.5971 41.988 34.3397C39.8096 33.0832 36.9232 34.0069 35.5413 36.4028C34.1585 38.7988 34.8038 41.7589 36.9822 43.0155ZM44.8707 47.5668C47.0482 48.8233 49.9346 47.8996 51.3165 45.5036C52.6993 43.1076 52.054 40.1475 49.8756 38.891C47.6981 37.6345 44.8108 38.5573 43.4289 40.9532C42.0461 43.3501 42.6923 46.3102 44.8707 47.5668ZM59.1589 50.1333C57.7595 52.4693 54.9136 53.3589 52.7592 52.1162C50.5817 50.8597 49.9364 47.8986 51.3183 45.5027C52.7011 43.1067 55.5866 42.1839 57.765 43.4404C59.9194 44.6831 60.5739 47.5926 59.2511 49.9738C60.6505 47.6377 63.4963 46.7491 65.6507 47.9917C67.8282 49.2473 68.4735 52.2084 67.0916 54.6043C66.9444 54.8594 66.777 55.1024 66.591 55.3308C67.0787 56.0498 67.3995 56.9164 67.4843 57.8669C67.7305 60.6214 65.8987 63.0367 63.3949 63.2598C60.8901 63.4839 58.6601 61.4318 58.4149 58.6763C58.3017 57.4984 58.5867 56.3165 59.2243 55.3197C58.2803 53.8733 58.1973 51.8645 59.1589 50.1333ZM49.2616 59.4857C49.5068 62.2412 47.676 64.6556 45.1713 64.8786C42.6665 65.1027 40.4374 63.0506 40.1913 60.2951C39.9451 57.5405 41.7769 55.1261 44.2807 54.9021C46.7855 54.679 49.0164 56.7311 49.2616 59.4857ZM36.1857 66.5131C38.6905 66.2891 40.5213 63.8747 40.2752 61.1202C40.03 58.3647 37.7999 56.3126 35.2952 56.5366C32.7905 56.7597 30.9596 59.1741 31.2058 61.9296C31.4519 64.6841 33.681 66.7362 36.1857 66.5131ZM58.414 58.6772C58.6601 61.4318 56.8284 63.8461 54.3246 64.0702C51.8198 64.2933 49.5898 62.2412 49.3446 59.4857C49.0984 56.7311 50.9302 54.3158 53.434 54.0927C55.9388 53.8696 58.1688 55.9217 58.4149 58.6763L58.414 58.6772Z" fill="#F8FCFF"/>
</g>
</g>
<defs>
<clipPath id="clip0_1_161">
<rect width="118" height="118" fill="white" transform="translate(0.798828)"/>
</clipPath>
</defs>
</svg>
