<svg width="118" height="118" viewBox="0 0 118 118" fill="none" xmlns="http://www.w3.org/2000/svg">
<g clip-path="url(#clip0_1_177)">
<mask id="mask0_1_177" style="mask-type:luminance" maskUnits="userSpaceOnUse" x="0" y="0" width="118" height="118">
<path d="M0 0H118V118H0V0Z" fill="white"/>
</mask>
<g mask="url(#mask0_1_177)">
<path d="M58.7188 117.438C91.1483 117.438 117.438 91.1483 117.438 58.7188C117.438 26.2893 91.1483 0 58.7188 0C26.2893 0 0 26.2893 0 58.7188C0 91.1483 26.2893 117.438 58.7188 117.438Z" fill="white"/>
<path fill-rule="evenodd" clip-rule="evenodd" d="M71.5352 14.5087C71.5475 14.3715 71.587 14.2381 71.6515 14.1163C71.7159 13.9946 71.804 13.8869 71.9106 13.7996C72.0172 13.7124 72.1402 13.6472 72.2722 13.6081C72.4043 13.569 72.5429 13.5566 72.6798 13.5717C72.8168 13.5868 72.9493 13.629 73.0697 13.696C73.1901 13.763 73.2959 13.8533 73.3809 13.9617C73.466 14.0701 73.5285 14.1943 73.5649 14.3272C73.6013 14.4601 73.6108 14.5989 73.5929 14.7355L72.6 23.7431C72.5648 24.0116 72.4257 24.2557 72.2126 24.4229C71.9995 24.59 71.7294 24.667 71.4601 24.6374C71.1909 24.6077 70.9441 24.4737 70.7725 24.2641C70.6009 24.0546 70.5183 23.7861 70.5424 23.5163L71.5352 14.5087ZM82.2935 17.9943C82.7563 18.3308 82.8586 18.9779 82.5222 19.4398L76.8416 27.2481C76.7617 27.358 76.6609 27.4511 76.545 27.5221C76.4291 27.5931 76.3004 27.6405 76.1662 27.6618C76.0319 27.683 75.8948 27.6776 75.7627 27.6458C75.6306 27.6141 75.506 27.5566 75.3961 27.4767C75.2861 27.3968 75.193 27.296 75.122 27.1801C75.0511 27.0642 75.0036 26.9355 74.9824 26.8013C74.9611 26.6671 74.9666 26.53 74.9983 26.3978C75.0301 26.2657 75.0875 26.1411 75.1674 26.0312L80.848 18.2229C80.9279 18.1128 81.0287 18.0195 81.1447 17.9484C81.2606 17.8773 81.3895 17.8298 81.5238 17.8086C81.6582 17.7873 81.7954 17.7928 81.9276 17.8247C82.0599 17.8565 82.1836 17.9142 82.2935 17.9943ZM89.7303 26.1215C89.9608 26.6452 89.7229 27.2554 89.1993 27.4859L81.0711 31.0554C80.9462 31.1133 80.811 31.1456 80.6734 31.1505C80.5358 31.1555 80.3986 31.133 80.2698 31.0842C80.1411 31.0355 80.0233 30.9616 79.9235 30.8668C79.8236 30.7721 79.7436 30.6583 79.6883 30.5323C79.6329 30.4062 79.6033 30.2704 79.601 30.1327C79.5988 29.9951 79.624 29.8583 79.6753 29.7306C79.7266 29.6028 79.8028 29.4865 79.8995 29.3885C79.9962 29.2906 80.1115 29.2129 80.2387 29.16L88.3668 25.5905C88.8905 25.3601 89.4998 25.5979 89.7303 26.1215ZM59.8938 31.721C59.3668 31.4322 58.7763 31.279 58.1754 31.2753C57.5744 31.2716 56.982 31.4175 56.4515 31.6998L51.0807 34.5576C50.7866 34.7129 50.5139 34.9056 50.2694 35.131C48.2809 36.4714 46.6532 38.2809 45.5302 40.3998C44.4071 42.5186 43.8232 44.8814 43.8301 47.2795C43.8301 55.3192 50.2538 61.8359 58.1764 61.8359C66.0999 61.8359 72.5226 55.3192 72.5226 47.2795C72.5226 41.3454 69.0231 36.24 64.0045 33.9731L59.8938 31.721Z" fill="#F49819"/>
<path fill-rule="evenodd" clip-rule="evenodd" d="M39.0342 55.9602C38.6156 54.8079 37.5813 53.9395 36.3561 53.9395H22.788C22.4482 53.9395 22.1117 54.0064 21.7978 54.1364C21.4839 54.2665 21.1987 54.4571 20.9585 54.6974C20.7183 54.9377 20.5278 55.223 20.3978 55.537C20.2679 55.8509 20.2011 56.1874 20.2012 56.5272V86.2115C20.2012 86.8976 20.4737 87.5555 20.9588 88.0407C21.4439 88.5258 22.1019 88.7983 22.788 88.7983H95.251C95.9372 88.7983 96.5952 88.5258 97.0805 88.0407C97.5657 87.5556 97.8385 86.8977 97.8387 86.2115V56.5272C97.8387 55.8409 97.5661 55.1827 97.0808 54.6974C96.5955 54.2121 95.9373 53.9395 95.251 53.9395H78.897C77.6727 53.9395 76.6384 54.8088 76.2198 55.9602C73.7446 62.7821 66.3567 67.7325 57.6275 67.7325C48.8973 67.7325 41.5103 62.7821 39.0342 55.9602Z" fill="#1D2939"/>
<path fill-rule="evenodd" clip-rule="evenodd" d="M59.0602 33.7985C58.8084 33.6349 58.5146 33.5479 58.2144 33.5479C57.9141 33.5479 57.6203 33.6349 57.3686 33.7985L53.8387 36.0912C52.5426 36.9329 53.1381 38.9453 54.6841 38.9453H61.7456C63.2907 38.9453 63.8862 36.9329 62.5901 36.0912L59.0602 33.7985ZM78.0969 78.2513C78.6109 78.2322 79.116 78.1111 79.5827 77.8951C80.0495 77.6791 80.4687 77.3724 80.8159 76.993C81.1631 76.6135 81.4315 76.1689 81.6053 75.6848C81.7792 75.2007 81.8551 74.687 81.8286 74.1733C81.8022 73.6596 81.6739 73.1564 81.4512 72.6927C81.2286 72.2291 80.916 71.8143 80.5316 71.4726C80.1472 71.1308 79.6988 70.8688 79.2123 70.7019C78.7258 70.535 78.211 70.4664 77.6978 70.5002C76.6805 70.5675 75.7306 71.0323 75.0533 71.7942C74.3759 72.5561 74.0256 73.5539 74.0779 74.572C74.1302 75.5901 74.581 76.5467 75.3328 77.2352C76.0847 77.9237 77.0772 78.2887 78.096 78.2513H78.0969ZM92.4644 70.5186C92.4904 71.0277 92.416 71.5369 92.2453 72.0172C92.0746 72.4975 91.8109 72.9395 91.4694 73.3179C91.1279 73.6963 90.7152 74.0038 90.2549 74.2227C89.7945 74.4416 89.2956 74.5677 88.7865 74.5938C88.2775 74.6199 87.7682 74.5454 87.2879 74.3747C86.8076 74.204 86.3657 73.9404 85.9872 73.5989C85.6088 73.2573 85.3014 72.8446 85.0825 72.3843C84.8636 71.924 84.7375 71.425 84.7114 70.916C84.6587 69.8878 85.0166 68.8809 85.7063 68.1167C86.396 67.3524 87.3611 66.8935 88.3892 66.8408C89.4173 66.7881 90.4242 67.146 91.1885 67.8357C91.9527 68.5254 92.4117 69.4905 92.4644 70.5186ZM86.1136 83.0211C86.8673 82.9825 87.5749 82.646 88.0806 82.0857C88.5863 81.5253 88.8487 80.7871 88.81 80.0333C88.7714 79.2795 88.4349 78.5719 87.8746 78.0663C87.3143 77.5606 86.576 77.2982 85.8222 77.3368C85.449 77.3559 85.0832 77.4484 84.7457 77.6089C84.4082 77.7694 84.1056 77.9948 83.8552 78.2723C83.6048 78.5497 83.4115 78.8737 83.2864 79.2259C83.1612 79.578 83.1066 79.9514 83.1258 80.3246C83.1449 80.6978 83.2373 81.0637 83.3978 81.4012C83.5583 81.7387 83.7838 82.0413 84.0612 82.2916C84.3386 82.542 84.6627 82.7353 85.0148 82.8605C85.367 82.9856 85.7403 83.0402 86.1136 83.0211Z" fill="#F8FCFF"/>
<path fill-rule="evenodd" clip-rule="evenodd" d="M48.6515 31.2217C49.4231 30.7644 50.2113 30.1919 50.9838 29.6194L51.3618 29.3383C52.02 28.8497 52.6708 28.3638 53.3374 27.9149C54.9479 26.8298 56.4441 26.0979 57.8776 26.0979C57.9514 26.0979 58.0251 26.0896 58.0942 26.0748C58.1643 26.0896 58.2362 26.0979 58.3109 26.0979C59.7444 26.0979 61.2406 26.8298 62.8511 27.9149C63.5176 28.3638 64.1694 28.8488 64.8258 29.3383L65.2047 29.6194C65.9772 30.1919 66.7654 30.7644 67.537 31.2217C73.4647 34.7322 77.3918 40.7483 77.3918 47.6061C77.3877 47.7446 77.4114 47.8825 77.4616 48.0117C77.5117 48.1409 77.5873 48.2586 77.6838 48.3581C77.7803 48.4575 77.8957 48.5365 78.0233 48.5905C78.151 48.6445 78.2881 48.6723 78.4267 48.6723C78.5652 48.6723 78.7024 48.6445 78.83 48.5905C78.9576 48.5365 79.073 48.4575 79.1695 48.3581C79.266 48.2586 79.3416 48.1409 79.3917 48.0117C79.4419 47.8825 79.4656 47.7446 79.4615 47.6061C79.4615 39.9131 75.0531 33.2682 68.5926 29.4406C67.9233 29.0442 67.2125 28.5316 66.4372 27.9564L66.0712 27.6844C65.3951 27.1735 64.7072 26.6783 64.0081 26.1993C62.3422 25.0764 60.4026 24.0273 58.3109 24.0273C58.2371 24.0273 58.1634 24.0356 58.0942 24.0504C58.023 24.0355 57.9504 24.0281 57.8776 24.0283C55.7859 24.0283 53.8462 25.0764 52.1804 26.1984C51.4706 26.6777 50.7746 27.1958 50.1173 27.6844L49.7513 27.9564C48.976 28.5316 48.2652 29.0442 47.5969 29.4406C41.1345 33.2682 36.727 39.9131 36.727 47.6061C36.7229 47.7446 36.7466 47.8825 36.7967 48.0117C36.8469 48.1409 36.9224 48.2586 37.0189 48.3581C37.1154 48.4575 37.2309 48.5365 37.3585 48.5905C37.4861 48.6445 37.6233 48.6723 37.7618 48.6723C37.9004 48.6723 38.0375 48.6445 38.1651 48.5905C38.2927 48.5365 38.4082 48.4575 38.5047 48.3581C38.6012 48.2586 38.6768 48.1409 38.7269 48.0117C38.7771 47.8825 38.8008 47.7446 38.7966 47.6061C38.7966 40.7474 42.7238 34.7322 48.6515 31.2217Z" fill="#1D2939"/>
</g>
</g>
<defs>
<clipPath id="clip0_1_177">
<rect width="118" height="118" fill="white"/>
</clipPath>
</defs>
</svg>
