<svg width="130" height="130" viewBox="0 0 130 130" fill="none" xmlns="http://www.w3.org/2000/svg">
<g opacity="0.3">
<path d="M0.417969 0.0742188H3.90343V3.55968H0.417969V0.0742188Z" fill="#1D2939"/>
<path d="M21.3307 0.0742188H24.8162V3.55968H21.3307V0.0742188Z" fill="#1D2939"/>
<path d="M42.2435 0.0742188H45.729V3.55968H42.2435V0.0742188Z" fill="#1D2939"/>
<path d="M63.1562 0.0742188H66.6417V3.55968H63.1562V0.0742188Z" fill="#1D2939"/>
<path d="M84.069 0.0742188H87.5545V3.55968H84.069V0.0742188Z" fill="#1D2939"/>
<path d="M104.982 0.0742188H108.467V3.55968H104.982V0.0742188Z" fill="#1D2939"/>
<path d="M125.895 0.0742188H129.38V3.55968H125.895V0.0742188Z" fill="#1D2939"/>
<path d="M0.417969 20.987H3.90343V24.4724H0.417969V20.987Z" fill="#1D2939"/>
<path d="M21.3307 20.987H24.8162V24.4724H21.3307V20.987Z" fill="#1D2939"/>
<path d="M42.2435 20.987H45.729V24.4724H42.2435V20.987Z" fill="#1D2939"/>
<path d="M63.1562 20.987H66.6417V24.4724H63.1562V20.987Z" fill="#1D2939"/>
<path d="M84.069 20.987H87.5545V24.4724H84.069V20.987Z" fill="#1D2939"/>
<path d="M104.982 20.987H108.467V24.4724H104.982V20.987Z" fill="#1D2939"/>
<path d="M125.895 20.987H129.38V24.4724H125.895V20.987Z" fill="#1D2939"/>
<path d="M0.417969 41.8997H3.90343V45.3852H0.417969V41.8997Z" fill="#1D2939"/>
<path d="M21.3307 41.8997H24.8162V45.3852H21.3307V41.8997Z" fill="#1D2939"/>
<path d="M42.2435 41.8997H45.729V45.3852H42.2435V41.8997Z" fill="#1D2939"/>
<path d="M63.1562 41.8997H66.6417V45.3852H63.1562V41.8997Z" fill="#1D2939"/>
<path d="M84.069 41.8997H87.5545V45.3852H84.069V41.8997Z" fill="#1D2939"/>
<path d="M104.982 41.8997H108.467V45.3852H104.982V41.8997Z" fill="#1D2939"/>
<path d="M125.895 41.8997H129.38V45.3852H125.895V41.8997Z" fill="#1D2939"/>
<path d="M0.417969 62.8125H3.90343V66.298H0.417969V62.8125Z" fill="#1D2939"/>
<path d="M21.3307 62.8125H24.8162V66.298H21.3307V62.8125Z" fill="#1D2939"/>
<path d="M42.2435 62.8125H45.729V66.298H42.2435V62.8125Z" fill="#1D2939"/>
<path d="M63.1562 62.8125H66.6417V66.298H63.1562V62.8125Z" fill="#1D2939"/>
<path d="M84.069 62.8125H87.5545V66.298H84.069V62.8125Z" fill="#1D2939"/>
<path d="M104.982 62.8125H108.467V66.298H104.982V62.8125Z" fill="#1D2939"/>
<path d="M125.895 62.8125H129.38V66.298H125.895V62.8125Z" fill="#1D2939"/>
<path d="M0.417969 83.7253H3.90343V87.2107H0.417969V83.7253Z" fill="#1D2939"/>
<path d="M21.3307 83.7253H24.8162V87.2107H21.3307V83.7253Z" fill="#1D2939"/>
<path d="M42.2435 83.7253H45.729V87.2107H42.2435V83.7253Z" fill="#1D2939"/>
<path d="M63.1562 83.7253H66.6417V87.2107H63.1562V83.7253Z" fill="#1D2939"/>
<path d="M84.069 83.7253H87.5545V87.2107H84.069V83.7253Z" fill="#1D2939"/>
<path d="M104.982 83.7253H108.467V87.2107H104.982V83.7253Z" fill="#1D2939"/>
<path d="M125.895 83.7253H129.38V87.2107H125.895V83.7253Z" fill="#1D2939"/>
<path d="M0.417969 104.638H3.90343V108.123H0.417969V104.638Z" fill="#1D2939"/>
<path d="M21.3307 104.638H24.8162V108.123H21.3307V104.638Z" fill="#1D2939"/>
<path d="M42.2435 104.638H45.729V108.123H42.2435V104.638Z" fill="#1D2939"/>
<path d="M63.1562 104.638H66.6417V108.123H63.1562V104.638Z" fill="#1D2939"/>
<path d="M84.069 104.638H87.5545V108.123H84.069V104.638Z" fill="#1D2939"/>
<path d="M104.982 104.638H108.467V108.123H104.982V104.638Z" fill="#1D2939"/>
<path d="M125.895 104.638H129.38V108.123H125.895V104.638Z" fill="#1D2939"/>
<path d="M0.417969 125.551H3.90343V129.036H0.417969V125.551Z" fill="#1D2939"/>
<path d="M21.3307 125.551H24.8162V129.036H21.3307V125.551Z" fill="#1D2939"/>
<path d="M42.2435 125.551H45.729V129.036H42.2435V125.551Z" fill="#1D2939"/>
<path d="M63.1562 125.551H66.6417V129.036H63.1562V125.551Z" fill="#1D2939"/>
<path d="M84.069 125.551H87.5545V129.036H84.069V125.551Z" fill="#1D2939"/>
<path d="M104.982 125.551H108.467V129.036H104.982V125.551Z" fill="#1D2939"/>
<path d="M125.895 125.551H129.38V129.036H125.895V125.551Z" fill="#1D2939"/>
</g>
</svg>
