<svg width="648" height="431" viewBox="0 0 648 431" fill="none" xmlns="http://www.w3.org/2000/svg">
<path d="M168.479 123.869H105.926L324.777 31.8076L542.073 122.231L168.479 123.869Z" stroke="#1D2939" stroke-width="1.7446" stroke-miterlimit="10" stroke-linecap="round" stroke-linejoin="round"/>
<path d="M499.391 281.012V372.125H365.73" stroke="#1D2939" stroke-width="1.8983" stroke-miterlimit="10" stroke-linecap="round" stroke-linejoin="round"/>
<path d="M164.16 126.455V144.212" stroke="#1D2939" stroke-width="1.9564" stroke-miterlimit="10" stroke-linecap="round" stroke-linejoin="round"/>
<path d="M164.16 96.8022V62.667H205.114V79.7346" stroke="#1D2939" stroke-width="1.7446" stroke-miterlimit="10" stroke-linecap="round" stroke-linejoin="round"/>
<path opacity="0.67" d="M352.512 101.199V241.791V275.151H574.041V241.791V101.199H352.512Z" fill="#84A7D4"/>
<path d="M565.832 91.6309H344.303V232.309H565.832V91.6309Z" fill="#486FA3"/>
<path d="M565.832 232.223H344.303V265.582H565.832V232.223Z" fill="#F1F9FC"/>
<path d="M447.724 249.463C447.724 254.635 443.49 258.859 438.306 258.859C433.122 258.859 428.889 254.635 428.889 249.463C428.889 244.291 433.122 240.068 438.306 240.068C443.49 239.982 447.724 244.205 447.724 249.463Z" fill="#1D2939"/>
<path d="M438.306 248.774C440.034 248.774 440.725 249.377 441.071 249.722C441.244 249.894 441.244 250.067 441.244 250.239V251.015C441.244 251.446 441.589 251.791 442.021 251.791H444.181C444.613 251.791 444.959 251.446 444.959 251.015V250.067C444.959 249.894 444.872 249.722 444.786 249.636C444.354 249.032 442.712 247.395 438.22 247.395C433.727 247.395 432.085 249.032 431.653 249.636C431.567 249.808 431.48 249.894 431.48 250.067V251.015C431.48 251.446 431.826 251.791 432.258 251.791H434.418C434.85 251.791 435.196 251.446 435.196 251.015V250.239C435.196 250.067 435.282 249.808 435.455 249.722C435.887 249.377 436.664 248.86 438.306 248.774Z" fill="white"/>
<path d="M482.111 249.463C482.111 254.635 477.877 258.859 472.693 258.859C467.509 258.859 463.275 254.635 463.275 249.463C463.275 244.291 467.509 240.068 472.693 240.068C477.877 239.982 482.111 244.205 482.111 249.463Z" fill="#1D2939"/>
<path d="M475.717 247.998V245.412H467.336V253.515H475.717V251.618L477.963 253.515V245.412L475.717 247.998Z" fill="white"/>
<path d="M401.932 103.871H314.408C311.125 103.871 308.533 106.543 308.533 109.733V131.283C308.533 134.558 311.125 137.144 314.408 137.144H390.095C392.341 144.385 399.08 143.868 399.08 143.868C397.266 140.334 399.08 137.144 399.08 137.144H401.932C405.215 137.144 407.807 134.558 407.807 131.283V109.733C407.807 106.457 405.215 103.871 401.932 103.871Z" fill="#F4F9FF"/>
<path d="M397.783 113.095H318.555V114.388H397.783V113.095Z" fill="#1D2939"/>
<path d="M397.783 116.888H318.555V118.181H397.783V116.888Z" fill="#1D2939"/>
<path d="M397.783 120.853H318.555V122.146H397.783V120.853Z" fill="#1D2939"/>
<path d="M358.126 125.421H318.555V126.714H358.126V125.421Z" fill="#1D2939"/>
<path d="M547.257 85.4241H536.889V75.0801H525.657V85.4241H515.289V96.6301H525.657V107.836H536.889V96.6301H547.257V85.4241Z" fill="#F49819"/>
<path d="M534.384 155.505C537.235 157.315 539.741 159.987 540.173 163.263C540.346 164.469 540.346 166.452 540.086 167.659C539.568 169.9 537.235 171.452 535.766 173.176C534.384 174.986 533.779 179.21 534.038 181.537L519.178 180.675C520.301 177.658 521.77 172.227 521.51 168.952C521.338 167.228 520.992 165.504 521.078 163.78C521.165 161.452 522.029 159.125 523.584 157.401C524.535 156.28 525.226 155.418 526.262 154.298C527.299 153.177 528.595 151.97 530.064 151.712C530.41 151.626 530.755 151.626 531.014 151.798C531.533 152.057 531.706 152.66 531.533 153.263C531.447 153.781 531.101 154.298 530.755 154.729C530.842 154.729 532.829 154.47 534.384 155.505Z" fill="#FBE7DA" stroke="#1D2939" stroke-width="0.6618" stroke-miterlimit="10" stroke-linecap="round" stroke-linejoin="round"/>
<path d="M484.704 112.491C483.667 120.336 482.717 128.438 484.963 135.938C486.432 140.679 489.11 145.075 490.752 149.73C492.48 154.385 492.998 159.988 490.406 164.211C487.296 169.211 480.902 170.849 475.113 171.538C462.413 173.004 449.453 171.969 437.184 168.435C433.641 167.401 430.099 166.108 427.421 163.608C422.755 159.126 422.237 151.799 423.36 145.42C424.483 139.041 426.902 132.921 427.248 126.456C427.507 120.767 426.038 114.991 426.816 109.302C428.285 98.9579 437.184 91.0275 447.033 87.4933C456.019 84.3039 466.387 84.3039 474.509 89.1311C482.63 94.0445 487.641 104.389 484.79 113.44" fill="#1D2939"/>
<path d="M477.1 154.643L471.225 232.223H494.293C497.145 247.481 510.191 245.843 510.191 245.843C527.73 244.55 538.876 177.4 538.876 177.4L517.189 176.452L511.228 196.623C509.586 191.795 509.154 186.537 507.772 181.624C503.884 167.401 491.615 155.936 477.273 152.488L477.1 154.643Z" fill="white"/>
<path d="M494.295 232.223C494.295 232.223 494.468 232.826 494.813 233.947C494.9 234.205 494.986 234.55 495.073 234.895C495.245 235.24 495.332 235.584 495.505 235.929C495.677 236.274 495.85 236.705 496.023 237.136C496.282 237.567 496.455 237.912 496.714 238.343C496.801 238.515 496.973 238.774 497.06 239.032C497.233 239.205 497.405 239.463 497.492 239.636C497.837 240.067 498.097 240.498 498.529 240.929C499.306 241.705 500.17 242.48 501.207 243.17C501.466 243.342 501.725 243.515 501.985 243.601C502.244 243.773 502.503 243.86 502.849 244.032C503.367 244.291 503.972 244.463 504.577 244.722C505.786 245.066 507.082 245.325 508.378 245.325C508.983 245.325 509.674 245.325 510.279 245.239C510.625 245.153 510.97 245.153 511.229 245.066C511.489 244.98 511.834 244.894 512.093 244.808C513.217 244.377 514.253 243.687 515.204 242.911C516.154 242.136 516.932 241.274 517.709 240.412C518.401 239.55 519.092 238.688 519.697 237.912C520.301 237.136 520.82 236.36 521.252 235.671C521.684 234.981 522.029 234.378 522.375 233.86C522.98 232.826 523.325 232.309 523.325 232.309C523.325 232.309 523.239 232.481 523.153 232.74C523.066 232.998 522.893 233.429 522.634 233.947C522.116 234.981 521.425 236.533 520.388 238.257C519.869 239.119 519.265 240.067 518.573 241.015C517.882 241.963 517.105 242.911 516.068 243.773C515.117 244.635 513.994 245.411 512.698 245.928C512.093 246.187 511.229 246.359 510.625 246.446C509.933 246.532 509.242 246.532 508.551 246.532C507.169 246.446 505.786 246.187 504.49 245.842C503.885 245.584 503.194 245.411 502.589 245.066C502.33 244.894 501.985 244.808 501.725 244.635C501.466 244.463 501.207 244.291 500.861 244.118C499.738 243.429 498.874 242.48 498.097 241.618C497.665 241.187 497.405 240.67 497.06 240.239C496.887 239.981 496.801 239.808 496.628 239.55C496.541 239.291 496.369 239.032 496.282 238.86C496.023 238.429 495.85 237.998 495.677 237.567C495.505 237.136 495.418 236.705 495.245 236.274C495.159 235.843 494.986 235.498 494.9 235.153C494.813 234.809 494.813 234.464 494.727 234.205C494.381 232.912 494.295 232.223 494.295 232.223Z" fill="#1D2939"/>
<path d="M414.375 166.28C419.041 159.729 425.866 154.73 433.469 152.23C433.901 152.057 434.333 151.971 434.765 151.799L440.9 232.223H414.375V166.28Z" fill="white"/>
<path d="M434.852 151.798C438.394 150.333 473.645 150.419 477.36 152.488L471.226 232.223H440.986L434.852 151.798Z" fill="#F49819"/>
<path d="M510.883 198.088C508.896 203.001 507.255 208.087 506.045 213.259" stroke="#1D2939" stroke-miterlimit="10" stroke-linecap="round" stroke-linejoin="round"/>
<path d="M477.273 152.488C480.297 161.453 483.753 177.055 487.814 185.589C484.703 188.52 482.025 191.795 479.779 195.33C481.334 198.002 483.321 200.329 485.654 202.312C479.087 211.19 474.076 221.19 470.793 231.706" stroke="#1D2939" stroke-miterlimit="10" stroke-linecap="round" stroke-linejoin="round"/>
<path d="M532.31 146.971C532.31 146.971 532.224 147.402 532.051 148.178C531.878 148.954 531.619 149.988 531.273 151.281C530.582 153.867 529.632 157.315 528.681 160.677C527.731 164.125 526.694 167.487 526.003 170.073C525.571 171.366 525.312 172.4 525.052 173.176C524.793 173.952 524.707 174.297 524.707 174.297C524.534 174.728 524.102 174.9 523.67 174.814C523.324 174.728 523.065 174.297 523.152 173.952C523.152 173.952 523.411 172.142 523.929 169.556C524.188 168.263 524.534 166.711 524.966 165.073C525.398 163.436 525.83 161.712 526.348 159.988C526.867 158.264 527.385 156.54 527.904 154.988C528.422 153.436 528.94 151.885 529.459 150.678C529.891 149.385 530.323 148.351 530.668 147.661C530.928 146.971 531.187 146.54 531.187 146.54C531.36 146.196 531.792 146.023 532.137 146.196C532.224 146.282 532.396 146.627 532.31 146.971Z" fill="#1D2939"/>
<path d="M435.023 151.885C431.999 160.85 428.543 176.452 424.482 184.986C427.593 187.916 430.271 191.192 432.518 194.726C430.962 197.398 428.975 199.726 426.642 201.708C433.209 210.587 438.22 220.586 441.503 231.103" stroke="#1D2939" stroke-miterlimit="10" stroke-linecap="round" stroke-linejoin="round"/>
<path d="M385.343 220.586C381.455 217.397 376.963 213.173 374.889 208.604C372.815 204.036 371.951 197.657 373.679 192.916H379.036L385.343 220.586Z" fill="white"/>
<path d="M372.988 166.28L427.679 166.453L442.454 232.223H388.022L372.988 166.28Z" fill="#C3A291"/>
<path d="M455.068 159.556C472.261 159.556 473.471 151.626 473.471 151.626C472.002 151.454 466.732 151.023 466.732 151.023L463.017 139.903L448.069 139.73C447.205 143.523 446.169 147.144 444.786 150.85C444.786 150.85 438.306 151.109 436.924 151.281C436.924 151.367 439.602 159.556 455.068 159.556Z" fill="#FBE7DA" stroke="#1D2939" stroke-width="0.855" stroke-miterlimit="10" stroke-linecap="round" stroke-linejoin="round"/>
<path d="M481.333 112.578C485.135 105.768 488.677 111.199 489.023 113.44C489.195 114.906 489.368 116.198 489.195 117.578C488.936 119.215 488.504 120.939 487.381 122.146C486.258 123.353 484.271 123.956 482.802 123.008C482.111 122.577 481.592 121.888 481.16 121.198" fill="#FBE7DA"/>
<path d="M481.333 112.578C485.135 105.768 488.677 111.199 489.023 113.44C489.195 114.906 489.368 116.198 489.195 117.578C488.936 119.215 488.504 120.939 487.381 122.146C486.258 123.353 484.271 123.956 482.802 123.008C482.111 122.577 481.592 121.888 481.16 121.198" stroke="#343637" stroke-width="0.75" stroke-miterlimit="10" stroke-linecap="round" stroke-linejoin="round"/>
<path d="M486.69 113.095C486.69 113.095 486.69 113.095 486.603 113.009C486.517 113.009 486.431 112.922 486.344 112.922C486.085 112.922 485.739 112.922 485.307 113.095C485.135 113.181 484.875 113.353 484.703 113.526C484.443 113.698 484.271 113.87 484.011 114.129C483.579 114.56 483.234 115.077 482.888 115.681C482.283 116.801 481.938 118.094 481.765 119.043C481.592 119.991 481.506 120.68 481.506 120.68C481.506 120.767 481.419 120.853 481.333 120.853C481.247 120.853 481.16 120.767 481.16 120.68C481.16 120.68 481.16 119.991 481.247 119.043C481.333 118.008 481.679 116.715 482.37 115.508C482.715 114.905 483.147 114.388 483.579 113.871C483.839 113.612 484.098 113.439 484.271 113.267C484.53 113.095 484.789 112.922 485.048 112.836C485.567 112.664 485.999 112.577 486.344 112.664C486.69 112.75 486.776 112.836 486.776 112.836C486.863 112.836 486.863 112.922 486.863 113.009C486.863 113.095 486.69 113.095 486.69 113.095Z" fill="#1D2939"/>
<path d="M483.753 116.198C483.753 116.198 483.839 116.198 484.012 116.284C484.185 116.37 484.358 116.456 484.617 116.715C485.049 117.146 485.481 117.836 485.654 118.611C485.74 118.956 485.74 119.387 485.654 119.732C485.654 120.077 485.481 120.422 485.395 120.68C485.222 121.197 485.049 121.542 485.049 121.542C484.963 121.628 484.876 121.628 484.79 121.628C484.703 121.628 484.703 121.542 484.703 121.456C484.703 121.456 484.876 121.111 484.963 120.594C485.049 120.335 485.049 119.991 485.135 119.732C485.135 119.387 485.135 119.042 485.135 118.698C485.049 118.008 484.703 117.405 484.358 117.06C484.185 116.887 484.012 116.715 483.926 116.629C483.839 116.543 483.753 116.543 483.753 116.543C483.667 116.543 483.667 116.456 483.667 116.37C483.58 116.198 483.667 116.112 483.753 116.198Z" fill="#1D2939"/>
<path d="M428.975 112.664C425.173 105.854 419.471 108.958 420.94 117.405C421.199 119.043 421.631 120.767 422.754 121.974C423.877 123.181 425.864 123.784 427.333 122.836C428.024 122.405 428.543 121.715 428.975 121.026" fill="#FBE7DA"/>
<path d="M428.975 112.664C425.173 105.854 419.471 108.958 420.94 117.405C421.199 119.043 421.631 120.767 422.754 121.974C423.877 123.181 425.864 123.784 427.333 122.836C428.024 122.405 428.543 121.715 428.975 121.026" stroke="#343637" stroke-width="0.75" stroke-miterlimit="10" stroke-linecap="round" stroke-linejoin="round"/>
<path d="M423.358 112.75C423.358 112.75 423.531 112.664 423.877 112.578C424.222 112.492 424.654 112.578 425.173 112.75C425.432 112.836 425.691 113.009 425.95 113.181C426.21 113.354 426.469 113.526 426.642 113.785C427.074 114.216 427.506 114.819 427.851 115.422C428.197 116.026 428.456 116.715 428.629 117.319C428.802 117.922 428.974 118.526 429.061 119.043C429.234 120.077 429.234 120.767 429.234 120.767C429.234 120.853 429.147 120.939 429.061 120.939C428.974 120.939 428.888 120.853 428.888 120.767C428.888 120.767 428.802 120.077 428.629 119.129C428.542 118.612 428.37 118.095 428.11 117.491C427.938 116.888 427.678 116.284 427.333 115.681C426.987 115.078 426.642 114.56 426.21 114.129C425.95 113.871 425.778 113.698 425.518 113.526C425.346 113.354 425.086 113.181 424.827 113.095C424.395 112.923 423.963 112.836 423.704 112.836C423.531 112.836 423.445 112.836 423.445 112.923C423.358 112.923 423.358 113.009 423.358 113.009C423.272 113.009 423.186 113.009 423.186 112.923C423.186 112.836 423.272 112.75 423.358 112.75Z" fill="#1D2939"/>
<path d="M426.469 116.37C426.469 116.37 426.382 116.456 426.296 116.456C426.209 116.543 426.037 116.715 425.864 116.887C425.518 117.232 425.173 117.922 425.086 118.525C425 118.87 425 119.215 425.086 119.56C425.086 119.904 425.173 120.163 425.259 120.422C425.346 120.939 425.518 121.284 425.518 121.284C425.518 121.37 425.518 121.456 425.432 121.456C425.345 121.456 425.259 121.456 425.259 121.37C425.259 121.37 425.086 121.025 424.913 120.508C424.827 120.249 424.741 119.904 424.654 119.56C424.654 119.215 424.654 118.784 424.654 118.439C424.827 117.663 425.259 116.974 425.691 116.543C425.95 116.37 426.123 116.198 426.296 116.112C426.469 116.025 426.555 116.025 426.555 116.025C426.642 116.025 426.728 116.025 426.728 116.112C426.555 116.198 426.469 116.284 426.469 116.37Z" fill="#1D2939"/>
<path d="M481.851 113.957C481.851 131.8 470.446 143.523 455.672 143.523C440.898 143.523 428.283 131.8 428.283 113.957C428.283 96.1134 440.293 81.6318 455.067 81.6318C469.842 81.6318 481.851 96.1134 481.851 113.957Z" fill="#FBE7DA" stroke="#1D2939" stroke-miterlimit="10"/>
<path d="M455.241 116.801C455.241 116.801 455.327 117.146 455.5 117.749C455.587 118.008 455.673 118.353 455.673 118.697C455.759 119.042 455.759 119.387 455.846 119.732C455.932 120.077 456.019 120.508 456.105 120.852C456.105 121.283 456.105 121.714 455.846 122.059C455.587 122.404 455.241 122.576 455.068 122.576C454.895 122.576 454.723 122.576 454.723 122.576C454.55 122.576 454.377 122.49 454.377 122.318C454.377 122.145 454.463 121.973 454.636 121.973C454.636 121.973 454.982 121.887 455.155 121.628C455.241 121.456 455.241 121.283 455.155 120.939C455.155 120.766 455.068 120.594 455.068 120.421C454.982 120.249 454.982 120.077 454.895 119.904C454.809 119.473 454.809 119.128 454.723 118.784C454.636 118.439 454.636 118.094 454.636 117.835C454.636 117.232 454.636 116.887 454.636 116.887C454.636 116.715 454.809 116.629 454.982 116.629C455.155 116.542 455.241 116.629 455.241 116.801Z" fill="#1D2939"/>
<path d="M458.524 126.714C458.524 126.714 458.438 126.801 458.265 126.887C458.092 126.973 457.833 127.145 457.487 127.318C457.142 127.49 456.796 127.576 456.364 127.663C455.932 127.749 455.5 127.835 454.982 127.835C454.031 127.835 453.081 127.576 452.476 127.232C452.131 127.059 451.958 126.887 451.785 126.801C451.612 126.714 451.526 126.628 451.526 126.628C451.439 126.542 451.439 126.37 451.439 126.283C451.526 126.197 451.612 126.197 451.699 126.197C451.699 126.197 451.785 126.283 451.958 126.37C452.131 126.456 452.39 126.542 452.649 126.714C452.908 126.801 453.34 126.887 453.686 126.973C454.031 127.059 454.463 127.059 454.895 127.145C455.327 127.145 455.759 127.145 456.105 127.059C456.451 126.973 456.883 126.887 457.142 126.801C457.487 126.714 457.66 126.628 457.833 126.542C458.006 126.456 458.092 126.37 458.092 126.37C458.179 126.283 458.351 126.37 458.351 126.456C458.697 126.628 458.611 126.714 458.524 126.714Z" fill="#1D2939"/>
<path d="M479.347 118.353C479.347 124.042 474.682 128.697 468.979 128.697C463.277 128.697 458.611 124.042 458.611 118.353C458.611 112.664 463.277 108.009 468.979 108.009C474.768 108.009 479.347 112.664 479.347 118.353Z" stroke="#1D2939" stroke-width="0.9457" stroke-miterlimit="10" stroke-linecap="round" stroke-linejoin="round"/>
<path d="M451.613 118.439C451.613 124.128 446.947 128.783 441.245 128.783C435.543 128.783 430.877 124.128 430.877 118.439C430.877 112.75 435.543 108.095 441.245 108.095C446.947 108.095 451.613 112.75 451.613 118.439Z" stroke="#1D2939" stroke-width="0.9457" stroke-miterlimit="10" stroke-linecap="round" stroke-linejoin="round"/>
<path d="M451.44 118.267C451.44 118.267 451.785 117.836 452.39 117.405C452.736 117.146 453.081 116.974 453.6 116.715C453.859 116.629 454.118 116.543 454.377 116.456C454.637 116.456 454.896 116.37 455.155 116.37C455.414 116.37 455.673 116.37 455.933 116.37C456.192 116.37 456.451 116.456 456.71 116.543C456.969 116.629 457.142 116.715 457.401 116.887C457.574 116.974 457.747 117.146 457.92 117.232C458.093 117.318 458.265 117.491 458.352 117.577C458.438 117.663 458.525 117.836 458.611 117.836C458.784 118.008 458.87 118.094 458.87 118.094C458.957 118.18 458.957 118.353 458.87 118.439C458.784 118.525 458.611 118.525 458.525 118.439C458.525 118.439 458.438 118.353 458.265 118.267C458.179 118.18 458.093 118.094 458.006 118.008C457.92 117.922 457.747 117.836 457.574 117.749C457.401 117.663 457.315 117.577 457.056 117.491C456.883 117.405 456.71 117.318 456.451 117.232C456.278 117.146 456.019 117.06 455.846 117.06H455.501H455.155C454.896 117.06 454.723 117.146 454.464 117.146C454.205 117.232 454.032 117.232 453.859 117.318C453.686 117.405 453.427 117.491 453.254 117.577C453.081 117.663 452.909 117.749 452.736 117.836C452.131 118.18 451.785 118.525 451.785 118.525C451.699 118.611 451.526 118.611 451.44 118.525C451.353 118.525 451.353 118.353 451.44 118.267Z" fill="#1D2939"/>
<path d="M455.761 146.713C454.292 146.713 452.909 146.541 452.132 146.368C452.045 146.368 452.045 146.368 451.959 146.282C451.527 146.196 451.181 146.11 450.749 145.937C450.577 145.851 450.49 145.679 450.49 145.42C450.49 145.334 450.663 145.248 450.749 145.161C450.49 145.075 450.231 144.989 450.058 144.903C449.885 144.817 449.799 144.644 449.885 144.386C449.972 144.213 450.145 144.127 450.317 144.127C453.601 144.903 457.057 144.989 460.34 144.299C460.513 144.299 460.685 144.386 460.772 144.472C460.858 144.472 460.945 144.472 461.031 144.386C461.204 144.299 461.463 144.472 461.463 144.644C461.549 144.817 461.377 145.075 461.204 145.075H461.117C461.117 145.075 461.117 145.161 461.117 145.248C461.117 145.42 460.945 145.592 460.772 145.679C460.34 145.765 459.994 145.765 459.562 145.851C459.562 146.023 459.476 146.11 459.303 146.196C458.353 146.627 457.057 146.713 455.761 146.713Z" fill="#FACBBD"/>
<path d="M443.232 84.1314C445.219 78.0112 452.131 74.7356 458.611 74.6494C464.573 74.5632 471.226 77.3216 473.299 82.9246C473.904 84.5624 474.163 86.4588 475.546 87.5794C476.669 88.4414 478.224 88.5276 479.607 88.6138C482.89 88.8724 486.691 90.3378 487.555 93.5272C488.074 95.596 487.21 97.9234 488.16 99.906C488.592 100.854 489.37 101.544 489.975 102.406C491.703 104.906 490.493 109.129 488.074 111.026C488.074 111.026 486.864 108.871 484.618 109.388C482.371 109.991 481.939 112.319 481.939 112.319C479.779 111.371 478.311 108.957 477.36 106.802C477.101 106.285 476.842 105.681 476.496 105.25C475.978 104.647 475.287 104.302 474.595 103.957C472.003 102.923 469.066 103.268 466.215 103.009C464.314 102.837 462.499 102.492 460.685 101.889C459.13 101.371 457.575 100.596 456.538 99.2164C455.847 98.2682 455.501 97.1476 454.81 96.1994C454.032 95.165 452.823 94.3892 451.44 94.1306C450.49 93.9582 449.539 94.0444 448.589 93.872C447.725 93.6996 446.947 93.2686 446.343 92.7514C443.837 90.855 442.541 87.3208 443.319 84.2176" fill="#1D2939"/>
<path d="M444.7 83.2696C441.849 82.2352 438.739 83.3558 436.06 84.9074C431.913 87.321 428.284 90.8552 426.038 95.079C423.705 99.3028 422.668 104.647 423.359 109.388C424.569 109.13 425.779 109.474 426.729 110.25C427.593 111.112 428.284 112.147 428.716 113.181C428.889 112.147 429.148 111.026 429.494 109.992C430.444 108.009 431.654 106.199 433.555 105.078C434.332 104.647 435.196 104.389 435.715 103.699C436.665 102.665 436.579 100.941 437.356 99.7338C438.134 98.527 439.516 97.9236 440.726 97.234C442.195 96.372 443.404 95.079 444.095 93.6136C444.614 92.5792 444.787 91.3724 444.527 90.2518C445.219 89.3898 445.737 88.614 445.996 87.9244C447.551 84.2178 444.7 83.2696 444.7 83.2696Z" fill="#1D2939"/>
<path d="M436.232 120.422C436.232 120.422 436.232 120.163 436.232 119.732C436.232 119.301 436.319 118.698 436.492 118.008C436.578 117.664 436.751 117.233 436.924 116.888C437.096 116.543 437.356 116.112 437.701 115.767C438.047 115.422 438.479 115.078 438.911 114.905C439.343 114.647 439.861 114.474 440.38 114.474C440.898 114.388 441.416 114.474 441.935 114.647C442.453 114.819 442.885 115.164 443.144 115.509C443.836 116.198 444.181 117.06 444.44 117.75C444.7 118.439 444.7 119.043 444.786 119.474C444.872 119.905 444.872 120.077 444.872 120.077C444.872 120.25 444.786 120.336 444.613 120.336C444.44 120.336 444.354 120.25 444.354 120.163C444.354 120.163 444.268 119.905 444.181 119.56C444.095 119.129 443.922 118.612 443.749 117.922C443.576 117.319 443.144 116.543 442.626 116.026C442.367 115.767 442.021 115.509 441.589 115.336C441.244 115.164 440.812 115.164 440.38 115.164C439.948 115.164 439.516 115.336 439.17 115.509C438.824 115.681 438.479 115.94 438.22 116.198C437.615 116.802 437.269 117.491 437.096 118.095C436.837 118.698 436.751 119.301 436.751 119.732C436.664 120.163 436.664 120.336 436.664 120.336C436.664 120.422 436.578 120.594 436.405 120.594C436.319 120.681 436.232 120.594 436.232 120.422Z" fill="#1D2939"/>
<path d="M465.004 120.422C465.004 120.422 465.004 120.163 465.004 119.732C465.004 119.301 465.09 118.698 465.263 118.008C465.349 117.664 465.522 117.233 465.695 116.888C465.868 116.543 466.127 116.112 466.473 115.767C466.818 115.422 467.25 115.078 467.682 114.905C468.114 114.647 468.633 114.474 469.151 114.474C469.669 114.388 470.188 114.474 470.706 114.647C471.225 114.819 471.657 115.164 471.916 115.509C472.607 116.198 472.953 117.06 473.212 117.75C473.471 118.439 473.471 119.043 473.557 119.474C473.644 119.905 473.644 120.077 473.644 120.077C473.644 120.25 473.558 120.336 473.385 120.336C473.212 120.336 473.125 120.25 473.125 120.163C473.125 120.163 473.039 119.905 472.953 119.56C472.866 119.129 472.694 118.612 472.521 117.922C472.348 117.319 471.916 116.543 471.397 116.026C471.138 115.767 470.793 115.509 470.361 115.336C470.015 115.164 469.583 115.164 469.151 115.164C468.719 115.164 468.287 115.336 467.941 115.509C467.596 115.681 467.25 115.94 466.991 116.198C466.386 116.802 466.041 117.491 465.868 118.095C465.609 118.698 465.522 119.301 465.522 119.732C465.436 120.163 465.436 120.336 465.436 120.336C465.436 120.422 465.35 120.594 465.177 120.594C465.09 120.681 465.004 120.594 465.004 120.422Z" fill="#1D2939"/>
<path d="M373.075 192.312C372.557 193.864 371.606 203.605 380.16 206.363C381.283 206.708 382.406 206.794 383.529 206.708C385.171 206.622 386.726 206.363 388.281 205.846C388.8 205.673 389.491 205.156 389.232 204.639C389.145 204.467 388.886 204.294 388.713 204.208C387.59 203.691 386.381 203.518 385.171 203.605C386.899 203.691 388.627 203.518 390.269 203.087C390.701 203.001 391.133 202.829 391.392 202.398C391.737 201.881 391.478 201.191 390.96 200.846C390.528 200.501 389.923 200.329 389.318 200.243C387.936 200.07 386.64 199.984 385.257 200.07C386.985 200.157 388.8 199.898 390.528 199.381C391.046 199.208 391.565 198.95 391.565 198.433C391.565 197.743 390.701 197.484 390.009 197.484C388.022 197.398 385.949 197.398 383.961 197.312C385.862 197.398 387.763 197.226 389.577 196.795C390.269 196.622 390.96 196.45 391.478 196.019C391.91 195.674 392.256 194.985 391.997 194.467C391.737 193.605 390.614 193.519 389.75 193.519C387.677 193.519 385.603 193.692 383.616 193.433C381.542 193.174 380.073 192.657 378.518 191.278L376.704 183.089C376.704 183.089 374.198 182.399 374.025 186.882L373.075 192.312Z" fill="#FBE7DA" stroke="#1D2939" stroke-width="0.6618" stroke-miterlimit="10" stroke-linecap="round" stroke-linejoin="round"/>
<path d="M539.654 168.78C541.036 166.797 541.209 163.953 540.95 161.453C540.777 159.557 540.086 158.091 539.308 156.453C538.531 154.816 536.716 153.609 535.247 153.178C533.001 152.488 531.446 153.436 529.459 154.816C528.163 155.678 526.78 156.626 525.484 157.488C524.793 157.919 524.102 158.436 523.67 159.212C523.238 159.988 523.151 161.194 523.756 161.798C524.102 162.229 524.62 162.315 525.139 162.315C527.299 162.401 529.459 161.798 531.273 160.505C529.459 161.281 527.558 162.056 525.743 162.832C525.139 163.091 524.447 163.436 524.188 164.211C523.929 164.987 524.361 165.849 524.966 166.28C525.571 166.711 526.262 166.711 526.953 166.711C528.767 166.625 530.495 166.022 532.051 164.987C530.236 165.763 528.422 166.625 526.694 167.401C526.348 167.573 526.003 167.659 525.83 168.004C525.484 168.608 525.743 169.383 526.175 169.814C526.607 170.245 527.212 170.245 527.817 170.245C529.804 170.245 531.791 169.642 533.606 168.435C531.964 169.211 530.323 170.073 528.767 170.849C528.422 171.021 527.99 171.28 527.817 171.711C527.471 172.4 527.817 173.262 528.422 173.693C528.94 174.124 529.631 174.038 530.236 174.038C533.26 173.607 536.025 171.797 538.703 169.987C538.531 169.814 539.395 169.125 539.654 168.78Z" fill="#FBE7DA" stroke="#1D2939" stroke-width="0.6618" stroke-miterlimit="10" stroke-linecap="round" stroke-linejoin="round"/>
<path opacity="0.67" d="M69.4648 167.659V343.421V385.056H346.29V343.421V167.659H69.4648Z" fill="#84A7D4"/>
<path d="M355.449 160.332H78.5371V336.094H355.449V160.332Z" fill="#3C5575"/>
<path d="M236.129 181.796C226.712 177.4 207.617 175.503 198.113 179.727C182.216 186.709 180.574 209.38 178.414 226.448C176.945 238.171 177.896 250.239 181.092 261.617C183.425 269.806 187.659 278.34 195.435 281.702C198.459 282.995 201.828 283.426 204.593 285.236C207.79 287.305 209.518 290.925 212.024 293.856C218.504 301.355 230.427 303.597 239.153 298.769C244.769 295.666 249.435 289.977 255.915 289.632C259.716 289.46 263.345 291.27 267.06 292.391C270.689 293.511 275.182 293.856 278.033 291.27C282.526 287.132 279.416 279.547 281.144 273.685C283.217 266.875 291.684 263.514 293.931 256.79C296.091 250.325 291.684 243.343 286.068 239.464C280.452 235.585 273.713 233.861 267.665 230.585C264.036 228.603 263 224.896 262.74 220.758C262.395 214.552 261.444 202.484 258.248 197.053C247.793 179.124 244.337 185.589 236.129 181.796Z" fill="#1D2939"/>
<path d="M285.724 349.972C280.281 337.301 269.481 315.578 261.791 302.304L279.157 286.012C283.996 296.356 297.042 325.922 304.213 349.972" fill="#FBE7DA"/>
<path d="M285.724 349.972C280.281 337.301 269.481 315.578 261.791 302.304L279.157 286.012C283.996 296.356 297.042 325.922 304.213 349.972" stroke="#1D2939" stroke-width="0.9103" stroke-miterlimit="10"/>
<path d="M174.613 294.114C167.614 301.097 155.95 311.354 147.397 312.13C132.709 313.423 131.758 293.856 132.968 287.391C135.128 275.84 136.77 266.53 139.794 255.152L140.485 251.963C137.72 247.394 139.016 238.688 141.349 233.947C141.867 232.826 142.99 231.706 144.114 232.137C144.805 232.395 145.15 233.257 145.323 234.033C145.755 235.671 146.101 237.309 146.187 238.946C146.187 236.878 146.792 234.809 147.829 232.999C148.261 232.223 148.866 231.533 149.643 231.188C150.421 230.844 151.544 231.188 151.803 231.964C151.976 232.395 151.803 232.912 151.717 233.43C151.198 235.585 150.594 237.74 150.075 239.895C150.766 237.653 151.63 235.498 152.84 233.43C153.445 232.309 154.741 231.102 155.778 231.792C156.728 232.395 156.469 233.861 156.123 234.895C155.432 236.878 154.741 238.774 153.963 240.757C154.914 238.602 156.037 236.447 157.333 234.464C157.592 234.033 157.938 233.602 158.37 233.43C159.406 232.999 160.443 234.119 160.443 235.24C160.443 236.36 159.752 237.309 159.147 238.257C157.592 240.757 156.382 243.429 155.605 246.273C156.728 245.584 157.851 244.894 159.061 244.636C160.357 244.377 163.122 243.687 162.603 245.584C160.011 248.515 156.469 252.307 153.704 254.98C152.235 264.117 150.507 280.753 150.421 289.977C153.099 287.391 158.542 282.133 163.035 277.047C163.035 277.047 169.429 277.133 173.317 281.615C177.378 285.925 174.613 294.114 174.613 294.114Z" fill="#FBE7DA" stroke="#1D2939" stroke-width="0.8255" stroke-miterlimit="10"/>
<path d="M255.57 296.183C255.743 300.838 250.472 309.458 254.274 332.042C255.224 337.473 258.767 344.541 259.803 349.972H179.797C186.45 326.439 186.795 304.803 182.043 297.304L171.157 302.993C169.083 301.183 166.923 297.821 165.973 295.321C165.023 292.821 164.504 289.891 162.258 288.253C161.221 287.477 159.839 287.218 158.715 286.615C156.037 285.322 154.309 282.477 154.223 279.547C162.258 268.341 173.403 260.065 183.339 254.721C189.733 251.273 196.645 248.428 205.458 247.739C207.877 247.566 236.475 247.739 236.475 247.739C245.288 248.17 269.999 252.997 285.81 290.666C285.637 291.873 285.291 291.442 284.341 292.218C280.021 295.58 274.319 296.959 269.826 300.235C268.875 300.924 268.011 301.7 267.061 302.303C264.987 303.683 262.655 304.545 260.235 304.889L255.57 296.183Z" fill="#F49819"/>
<path d="M170.984 302.735C170.984 302.735 171.675 302.304 172.625 301.787C173.662 301.183 174.958 300.494 176.34 299.718C177.723 299.028 179.105 298.339 180.142 297.821C181.179 297.304 181.87 297.046 181.87 297.046C182.043 296.959 182.216 297.046 182.216 297.218C182.302 297.39 182.216 297.477 182.129 297.563C182.129 297.563 181.438 297.994 180.488 298.511C179.451 299.114 178.155 299.804 176.772 300.494C175.39 301.183 174.008 301.873 172.971 302.39C171.934 302.907 171.243 303.166 171.243 303.166C171.07 303.252 170.984 303.166 170.897 302.993C170.811 302.993 170.897 302.821 170.984 302.735Z" fill="#1D2939"/>
<path d="M255.828 296.097C255.828 296.097 256.173 296.614 256.605 297.39C257.037 298.166 257.642 299.286 258.247 300.321C258.852 301.441 259.37 302.476 259.716 303.338C260.148 304.2 260.32 304.717 260.32 304.717C260.407 304.889 260.32 305.062 260.148 305.062C259.975 305.148 259.888 305.062 259.802 304.976C259.802 304.976 259.456 304.458 259.024 303.683C258.592 302.907 257.988 301.786 257.383 300.752C256.864 299.631 256.26 298.597 255.914 297.735C255.568 296.873 255.309 296.356 255.309 296.356C255.223 296.183 255.309 296.097 255.482 296.011C255.568 295.925 255.741 295.925 255.828 296.097Z" fill="#1D2939"/>
<path d="M241.833 248.256C239.586 247.738 237.685 247.566 236.217 247.48C236.217 247.48 233.538 247.307 233.193 247.307L229.045 232.309H212.543C211.333 237.394 210.815 242.308 209.087 247.221C203.385 247.652 195.781 248.945 191.375 250.755C191.375 250.755 198.46 260.324 221.183 260.668C243.129 261.013 252.201 251.359 252.201 251.359C248.399 249.721 244.684 248.859 241.833 248.256Z" fill="#FBE7DA" stroke="#1D2939" stroke-width="0.9103" stroke-miterlimit="10"/>
<path d="M191.719 209.379C187.831 203.086 184.375 207.741 183.771 209.896C183.425 211.189 183.425 212.482 183.598 213.775C183.857 215.327 184.289 216.878 185.499 217.999C186.708 219.12 188.695 219.637 190.164 218.861C190.855 218.43 191.374 217.827 191.806 217.223" fill="#FBE7DA"/>
<path d="M191.719 209.379C187.831 203.086 184.375 207.741 183.771 209.896C183.425 211.189 183.425 212.482 183.598 213.775C183.857 215.327 184.289 216.878 185.499 217.999C186.708 219.12 188.695 219.637 190.164 218.861C190.855 218.43 191.374 217.827 191.806 217.223" stroke="#1D2939" stroke-width="0.6368" stroke-miterlimit="10" stroke-linecap="round" stroke-linejoin="round"/>
<path d="M185.93 209.379C185.93 209.379 185.93 209.379 186.017 209.293C186.103 209.293 186.189 209.207 186.362 209.207C186.708 209.121 187.14 209.121 187.658 209.293C188.177 209.466 188.695 209.81 189.127 210.155C189.645 210.586 190.077 211.103 190.423 211.707C191.114 212.914 191.46 214.12 191.719 215.155C191.892 216.103 191.892 216.793 191.892 216.793C191.892 216.879 191.805 216.965 191.719 216.965C191.633 216.965 191.546 216.879 191.546 216.793C191.546 216.793 191.46 216.189 191.201 215.241C191.114 214.81 190.941 214.207 190.682 213.689C190.509 213.086 190.25 212.569 189.905 211.965C189.559 211.448 189.213 210.931 188.781 210.5C188.349 210.069 187.917 209.81 187.485 209.638C187.053 209.466 186.708 209.466 186.449 209.466C186.189 209.466 186.017 209.552 186.017 209.552C185.93 209.552 185.844 209.552 185.844 209.466C185.844 209.552 185.844 209.466 185.93 209.379C185.93 209.466 185.93 209.466 185.93 209.379Z" fill="#1D2939"/>
<path d="M189.128 212.74C189.128 212.74 189.041 212.74 188.955 212.827C188.869 212.913 188.696 212.999 188.523 213.171C188.177 213.516 187.832 214.033 187.659 214.723C187.486 215.326 187.659 216.016 187.745 216.533C187.832 217.05 188.005 217.309 188.005 217.309C188.005 217.395 188.005 217.481 187.918 217.481C187.832 217.481 187.745 217.481 187.745 217.395C187.745 217.395 187.573 217.137 187.4 216.619C187.313 216.361 187.227 216.016 187.141 215.671C187.141 215.326 187.141 214.982 187.141 214.551C187.313 213.775 187.745 213.171 188.177 212.827C188.437 212.654 188.609 212.568 188.782 212.482C188.955 212.396 189.041 212.396 189.041 212.396C189.128 212.396 189.214 212.396 189.214 212.482C189.214 212.654 189.214 212.74 189.128 212.74Z" fill="#1D2939"/>
<path d="M253.495 209.379C257.383 203.087 260.925 207.742 261.271 210.155C261.444 211.448 261.617 212.741 261.444 214.034C261.185 215.586 260.753 217.137 259.543 218.258C258.333 219.379 256.346 219.896 254.877 219.12C254.186 218.689 253.495 217.741 252.977 217.137" fill="#FBE7DA"/>
<path d="M253.495 209.379C257.383 203.087 260.925 207.742 261.271 210.155C261.444 211.448 261.617 212.741 261.444 214.034C261.185 215.586 260.753 217.137 259.543 218.258C258.333 219.379 256.346 219.896 254.877 219.12C254.186 218.689 253.495 217.741 252.977 217.137" stroke="#1D2939" stroke-width="0.6368" stroke-miterlimit="10" stroke-linecap="round" stroke-linejoin="round"/>
<path d="M258.852 209.896C258.852 209.896 258.679 209.81 258.42 209.81C258.161 209.81 257.815 209.81 257.383 209.982C256.519 210.327 255.569 211.189 254.878 212.224C254.532 212.741 254.273 213.344 254.1 213.861C253.927 214.379 253.668 214.896 253.582 215.413C253.323 216.361 253.236 216.965 253.236 216.965C253.236 217.051 253.15 217.137 253.063 217.137C252.977 217.137 252.891 217.051 252.891 216.965C252.891 216.965 252.891 216.275 253.15 215.327C253.236 214.81 253.409 214.292 253.668 213.775C253.841 213.172 254.1 212.568 254.532 212.051C255.223 210.931 256.26 210.069 257.297 209.724C257.815 209.551 258.247 209.551 258.507 209.638C258.679 209.638 258.766 209.724 258.852 209.724C258.939 209.724 258.939 209.81 258.939 209.81C259.025 209.81 259.025 209.896 259.025 209.982C259.025 209.896 258.939 209.896 258.852 209.896Z" fill="#1D2939"/>
<path d="M255.915 212.741C255.915 212.741 256.001 212.741 256.174 212.827C256.347 212.913 256.52 212.999 256.779 213.172C257.211 213.517 257.643 214.12 257.816 214.896C257.902 215.241 257.902 215.672 257.816 216.016C257.816 216.361 257.643 216.706 257.557 216.965C257.384 217.482 257.211 217.74 257.211 217.74C257.125 217.827 257.038 217.827 257.038 217.827C256.952 217.827 256.952 217.74 256.952 217.654C256.952 217.654 257.125 217.309 257.211 216.878C257.297 216.361 257.47 215.758 257.297 215.068C257.211 214.465 256.779 213.861 256.433 213.517C256.261 213.344 256.088 213.258 256.001 213.172C255.915 213.086 255.829 213.086 255.829 213.086C255.742 213.086 255.742 212.999 255.742 212.913C255.829 212.741 255.829 212.655 255.915 212.741Z" fill="#1D2939"/>
<path d="M254.446 208.69C254.446 227.654 240.622 240.153 222.651 240.153C204.68 240.153 189.387 227.74 189.387 208.69C189.387 189.726 203.988 174.296 221.96 174.296C239.931 174.296 254.446 189.64 254.446 208.69Z" fill="#FBE7DA" stroke="#1D2939" stroke-width="0.8212" stroke-miterlimit="10"/>
<path d="M222.652 211.879C222.652 211.879 222.825 212.31 222.998 213C223.084 213.345 223.171 213.689 223.257 214.12C223.344 214.551 223.43 214.896 223.516 215.327C223.603 215.758 223.776 216.275 223.689 216.793C223.689 217.051 223.603 217.31 223.516 217.568C223.43 217.827 223.171 218.086 222.998 218.172C222.566 218.517 222.22 218.517 221.961 218.517C221.702 218.517 221.616 218.517 221.616 218.517C221.356 218.517 221.184 218.344 221.184 218.086C221.184 217.913 221.27 217.741 221.443 217.655H221.529C221.529 217.655 221.616 217.655 221.788 217.568C221.961 217.482 222.134 217.396 222.307 217.224C222.393 217.051 222.48 216.879 222.48 216.62C222.48 216.275 222.393 215.931 222.22 215.5C222.134 215.069 221.961 214.551 221.875 214.12C221.788 213.689 221.788 213.258 221.788 212.914C221.788 212.224 221.875 211.793 221.875 211.793C221.875 211.534 222.134 211.448 222.307 211.448C222.48 211.621 222.566 211.707 222.652 211.879Z" fill="#1D2939"/>
<path d="M206.582 214.034C206.582 215.413 205.631 216.534 204.422 216.534C203.212 216.534 202.262 215.413 202.262 214.034C202.262 212.655 203.212 211.534 204.422 211.534C205.631 211.534 206.582 212.655 206.582 214.034Z" fill="#1D2939"/>
<path d="M242.179 214.034C242.179 215.413 241.229 216.534 240.019 216.534C238.81 216.534 237.859 215.413 237.859 214.034C237.859 212.655 238.81 211.534 240.019 211.534C241.229 211.534 242.179 212.655 242.179 214.034Z" fill="#1D2939"/>
<path d="M216.864 221.189C216.864 221.189 216.951 221.275 217.037 221.361C217.21 221.447 217.383 221.62 217.555 221.792C217.815 221.964 218.074 222.137 218.333 222.309C218.592 222.482 218.938 222.654 219.283 222.826C219.629 222.999 219.975 223.085 220.32 223.171C220.666 223.257 221.011 223.344 221.271 223.43C221.53 223.516 221.789 223.516 221.962 223.516C222.135 223.516 222.221 223.516 222.221 223.516C222.394 223.516 222.48 223.689 222.48 223.861C222.48 223.947 222.394 224.119 222.221 224.119C222.221 224.119 221.789 224.206 221.184 224.206C220.579 224.206 219.715 224.033 218.938 223.688C218.16 223.344 217.469 222.826 217.037 222.395C216.778 222.223 216.605 221.964 216.519 221.792C216.432 221.62 216.346 221.533 216.346 221.533C216.259 221.447 216.259 221.275 216.432 221.189C216.605 221.103 216.778 221.189 216.864 221.189Z" fill="#1D2939"/>
<path d="M147.915 245.067C147.915 245.067 148.174 245.239 148.433 245.584C148.692 245.929 149.038 246.446 149.297 247.049C149.556 247.653 149.643 248.256 149.643 248.687C149.643 249.118 149.643 249.463 149.643 249.463C149.643 249.549 149.556 249.635 149.47 249.635C149.384 249.635 149.297 249.549 149.297 249.463C149.297 249.463 149.211 248.342 148.779 247.308C148.606 246.791 148.347 246.273 148.088 245.929C147.915 245.584 147.656 245.325 147.656 245.325C147.569 245.239 147.656 245.153 147.656 245.067C147.742 244.98 147.828 244.98 147.915 245.067Z" fill="#373735"/>
<path d="M221.527 243.773C219.799 243.773 218.071 243.601 217.121 243.342C217.035 243.342 217.035 243.256 216.948 243.256C216.43 243.17 215.998 242.997 215.566 242.825C215.307 242.739 215.22 242.48 215.307 242.222C215.393 242.049 215.479 241.963 215.566 241.877C215.307 241.791 214.961 241.704 214.702 241.532C214.443 241.446 214.356 241.187 214.443 240.929C214.529 240.67 214.788 240.584 214.961 240.67C218.935 241.618 223.083 241.704 227.057 240.929C227.23 240.842 227.489 241.015 227.575 241.187C227.662 241.187 227.748 241.187 227.835 241.101C228.094 241.015 228.353 241.187 228.353 241.446C228.439 241.704 228.267 241.963 228.007 241.963H227.921C227.921 242.049 227.921 242.049 228.007 242.135C228.007 242.394 227.835 242.566 227.575 242.653C227.057 242.739 226.625 242.739 226.107 242.825C226.107 242.997 225.934 243.17 225.761 243.256C224.724 243.601 223.083 243.773 221.527 243.773Z" fill="#FACBBD"/>
<path d="M251.854 184.296C233.278 159.815 205.371 173.779 205.716 177.658C205.457 179.037 205.63 180.503 205.803 181.968C206.407 185.502 207.79 189.209 210.9 190.933C213.147 192.14 215.825 192.054 218.331 192.657C222.305 193.519 225.934 196.019 228.007 199.467C228.958 201.018 229.649 202.742 230.599 204.294C232.932 208.087 236.993 210.673 241.313 211.793C245.115 212.828 254.273 216.103 260.407 208.345C258.852 194.122 254.532 187.744 251.854 184.296Z" fill="#1D2939"/>
<path d="M187.313 206.191C188.35 206.622 189.387 206.363 190.424 206.105C191.461 205.846 192.411 205.243 193.275 204.553C195.349 202.915 196.472 200.588 197.595 198.26C198.459 196.45 200.273 195.243 202.088 194.209C203.902 193.175 205.803 192.313 207.358 191.02C208.913 189.727 210.037 187.744 209.777 185.848C209.691 185.158 209.345 184.555 209 183.865C210.037 182.744 210.814 181.624 211.246 180.676C213.061 176.366 209.605 175.331 209.605 175.331C206.149 174.124 202.347 175.417 199.15 177.228C194.053 179.986 189.733 183.951 186.881 188.778C184.03 193.606 182.734 200.329 183.598 205.76C183.685 205.674 185.845 205.587 187.313 206.191Z" fill="#1D2939"/>
<path d="M355.449 336.094H78.5371V377.728H355.449V336.094Z" fill="#F1F9FC"/>
<path d="M207.531 360.351C209.042 354.005 205.111 347.64 198.751 346.132C192.391 344.625 186.01 348.547 184.499 354.892C182.988 361.238 186.92 367.604 193.28 369.111C199.64 370.618 206.02 366.696 207.531 360.351Z" fill="#3C5575"/>
<path d="M196.04 356.782C198.2 356.868 199.151 357.472 199.496 357.903C199.669 358.075 199.756 358.333 199.756 358.592V359.627C199.756 360.144 200.188 360.661 200.792 360.661H203.471C203.989 360.661 204.508 360.23 204.508 359.627V358.42C204.508 358.247 204.421 357.989 204.335 357.816C203.816 357.04 201.743 354.972 196.127 354.972C190.511 354.972 188.437 357.04 187.919 357.816C187.832 357.989 187.746 358.161 187.746 358.42V359.627C187.746 360.144 188.178 360.661 188.783 360.661H191.461C191.98 360.661 192.498 360.23 192.498 359.627V358.592C192.498 358.333 192.584 358.075 192.757 357.903C193.016 357.472 193.967 356.868 196.04 356.782Z" fill="white"/>
<path d="M250.669 359.529C251.721 353.092 247.343 347.023 240.89 345.973C234.438 344.924 228.355 349.292 227.303 355.729C226.251 362.166 230.629 368.235 237.081 369.285C243.534 370.334 249.617 365.967 250.669 359.529Z" fill="#3C5575"/>
<path d="M242.869 355.747V352.558H232.328V362.643H242.869V360.316L245.634 362.643V352.558L242.869 355.747Z" fill="white"/>
<path d="M163.64 147.919H102.123C100.05 147.919 98.4082 149.557 98.4082 151.626V191.967C98.4082 194.036 100.05 195.674 102.123 195.674H151.458C153.618 201.966 161.567 202.053 161.567 202.053C159.407 198.863 161.567 195.674 161.567 195.674H163.64C165.714 195.674 167.355 194.036 167.355 191.967V151.626C167.355 149.557 165.627 147.919 163.64 147.919Z" fill="#F4F9FF"/>
<path d="M160.012 166.193H107.049V167.573H160.012V166.193Z" fill="#1D2939"/>
<path d="M160.012 170.072H107.049V171.451H160.012V170.072Z" fill="#1D2939"/>
<path d="M160.012 174.21H107.049V175.589H160.012V174.21Z" fill="#1D2939"/>
<path d="M133.574 179.037H107.049V180.416H133.574V179.037Z" fill="#1D2939"/>
<path d="M269.912 287.305C272.418 287.305 272.418 283.426 269.912 283.426C267.407 283.426 267.407 287.305 269.912 287.305Z" fill="#343637"/>
<path d="M260.063 269.979C261.705 269.979 261.705 267.393 260.063 267.393C258.422 267.393 258.422 269.979 260.063 269.979Z" fill="#343637"/>
<path d="M245.721 283.857C248.227 283.857 248.227 279.978 245.721 279.978C243.215 279.978 243.215 283.857 245.721 283.857Z" fill="#343637"/>
<path d="M230.688 275.754C232.33 275.754 232.33 273.168 230.688 273.168C229.047 273.168 229.047 275.754 230.688 275.754Z" fill="#343637"/>
<path d="M215.135 290.753C217.641 290.753 217.641 286.874 215.135 286.874C212.629 286.874 212.629 290.753 215.135 290.753Z" fill="#343637"/>
<path d="M204.249 275.15C205.891 275.15 205.891 272.564 204.249 272.564C202.521 272.564 202.521 275.15 204.249 275.15Z" fill="#343637"/>
<path d="M180.057 286.185C182.563 286.185 182.563 282.306 180.057 282.306C177.551 282.306 177.551 286.185 180.057 286.185Z" fill="#343637"/>
<path d="M182.303 267.737C184.809 267.737 184.809 263.858 182.303 263.858C179.797 263.858 179.797 267.737 182.303 267.737Z" fill="#343637"/>
<path d="M200.188 301.614C201.83 301.614 201.83 299.028 200.188 299.028C198.547 299.028 198.547 301.614 200.188 301.614Z" fill="#343637"/>
<path d="M234.749 302.218C236.39 302.218 236.39 299.632 234.749 299.632C233.107 299.632 233.107 302.218 234.749 302.218Z" fill="#343637"/>
<path d="M200.188 323.423C201.83 323.423 201.83 320.837 200.188 320.837C198.547 320.837 198.547 323.423 200.188 323.423Z" fill="#343637"/>
<path d="M218.592 321.182C221.098 321.182 221.098 317.303 218.592 317.303C216.086 317.303 216.086 321.182 218.592 321.182Z" fill="#343637"/>
<path d="M240.536 324.026C242.178 324.026 242.178 321.44 240.536 321.44C238.808 321.44 238.808 324.026 240.536 324.026Z" fill="#343637"/>
</svg>
