<svg width="119" height="118" viewBox="0 0 119 118" fill="none" xmlns="http://www.w3.org/2000/svg">
<g clip-path="url(#clip0_1_205)">
<mask id="mask0_1_205" style="mask-type:luminance" maskUnits="userSpaceOnUse" x="0" y="0" width="119" height="118">
<path d="M0.400391 0H118.4V118H0.400391V0Z" fill="white"/>
</mask>
<g mask="url(#mask0_1_205)">
<path d="M59.1192 117.438C91.5487 117.438 117.838 91.1483 117.838 58.7188C117.838 26.2893 91.5487 0 59.1192 0C26.6897 0 0.400391 26.2893 0.400391 58.7188C0.400391 91.1483 26.6897 117.438 59.1192 117.438Z" fill="white"/>
<path fill-rule="evenodd" clip-rule="evenodd" d="M40.5504 72.6116C49.1469 72.6116 56.2638 66.2784 57.4899 58.023H65.4752C66.7013 66.2784 73.8181 72.6116 82.4146 72.6116C91.873 72.6116 99.5412 64.9444 99.5412 55.485C99.5412 46.0266 91.873 38.3594 82.4146 38.3594C74.0394 38.3594 67.0691 44.37 65.5812 52.3147H57.3839C55.896 44.3709 48.9257 38.3594 40.5504 38.3594C31.092 38.3594 23.4238 46.0266 23.4238 55.485C23.4238 64.9435 31.092 72.6116 40.5504 72.6116Z" fill="#1D2939"/>
<path d="M82.415 66.9027C89.0709 66.9027 94.4666 61.649 94.4666 55.1681C94.4666 48.6873 89.0709 43.4336 82.415 43.4336C75.759 43.4336 70.3633 48.6873 70.3633 55.1681C70.3633 61.649 75.759 66.9027 82.415 66.9027Z" fill="#F8FCFF"/>
<path d="M40.5497 66.9027C47.2057 66.9027 52.6014 61.649 52.6014 55.1681C52.6014 48.6873 47.2057 43.4336 40.5497 43.4336C33.8938 43.4336 28.498 48.6873 28.498 55.1681C28.498 61.649 33.8938 66.9027 40.5497 66.9027Z" fill="#F8FCFF"/>
<mask id="mask1_1_205" style="mask-type:luminance" maskUnits="userSpaceOnUse" x="28" y="43" width="25" height="24">
<path d="M40.5497 66.9037C47.2057 66.9037 52.6014 61.6499 52.6014 55.1691C52.6014 48.6883 47.2057 43.4346 40.5497 43.4346C33.8938 43.4346 28.498 48.6883 28.498 55.1691C28.498 61.6499 33.8938 66.9037 40.5497 66.9037Z" fill="white"/>
</mask>
<g mask="url(#mask1_1_205)">
<path d="M35.7943 63.7326C40.1734 63.7326 43.7233 60.0406 43.7233 55.4864C43.7233 50.9322 40.1734 47.2402 35.7943 47.2402C31.4152 47.2402 27.8652 50.9322 27.8652 55.4864C27.8652 60.0406 31.4152 63.7326 35.7943 63.7326Z" fill="#1D2939"/>
</g>
<path fill-rule="evenodd" clip-rule="evenodd" d="M86.5003 56.1386C87.4728 55.5882 88.3283 54.7549 89.2023 53.5942C89.2824 53.4816 89.3844 53.3861 89.502 53.3135C89.6197 53.2408 89.7507 53.1925 89.8874 53.1714C90.024 53.1502 90.1635 53.1566 90.2976 53.1903C90.4318 53.2239 90.5578 53.2841 90.6683 53.3672C90.7788 53.4504 90.8715 53.5548 90.9409 53.6744C91.0104 53.7939 91.0552 53.9262 91.0727 54.0634C91.0902 54.2005 91.0801 54.3398 91.0429 54.473C91.0057 54.6061 90.9422 54.7305 90.8561 54.8387C89.8835 56.1294 88.8261 57.1997 87.5189 57.9399C86.2006 58.6857 84.698 59.0572 82.892 59.0572C81.1386 59.0572 79.7125 58.9734 78.0162 58.0183L77.7812 57.8865L77.7784 57.8846C77.3018 57.62 76.6897 57.279 76.1411 56.8862C75.5143 56.4382 74.7915 55.8012 74.4707 54.9411C74.4178 54.8127 74.3913 54.6749 74.3927 54.5361C74.3941 54.3972 74.4235 54.26 74.479 54.1327C74.5345 54.0054 74.6151 53.8906 74.7159 53.7951C74.8168 53.6996 74.9358 53.6254 75.0659 53.5768C75.196 53.5282 75.3345 53.5063 75.4733 53.5124C75.612 53.5185 75.7481 53.5524 75.8735 53.6122C75.9988 53.672 76.1109 53.7564 76.203 53.8603C76.295 53.9643 76.3652 54.0857 76.4094 54.2174C76.5062 54.4755 76.7975 54.8111 77.3451 55.2038C77.7895 55.5209 78.2836 55.7966 78.762 56.063L78.7639 56.0648L79.0322 56.2142C80.249 56.9001 81.2308 56.9876 82.892 56.9876C84.3975 56.9876 85.5387 56.6825 86.5003 56.1386ZM64.0314 56.9452C64.2808 56.831 64.5654 56.8204 64.8226 56.9158C65.0798 57.0113 65.2886 57.2049 65.4032 57.4541C67.0155 60.9665 68.45 64.5037 69.8853 68.0418L70.0918 68.5516C70.349 69.185 70.6108 69.7492 70.8828 70.3345C71.0893 70.7798 71.3013 71.238 71.5226 71.7487C72.0001 72.855 72.4361 74.0442 72.6279 75.3588C72.7809 76.4088 72.4785 77.291 71.8111 77.9308C71.2008 78.5162 70.3767 78.8112 69.6207 78.9753C68.3052 79.2601 66.7519 79.227 65.7691 79.2057C65.6398 79.2028 65.5104 79.2003 65.381 79.1984C63.3179 79.1707 61.1238 78.9956 59.057 78.5051C58.9591 78.4861 58.8607 78.4698 58.762 78.4563C58.5771 78.4295 58.393 78.3978 58.2098 78.3613C57.986 78.3182 57.7669 78.254 57.5552 78.1696C57.3773 78.0949 56.9837 77.9087 56.7624 77.4901C56.6473 77.2704 56.6149 77.0166 56.6712 76.775C56.7275 76.5334 56.8686 76.32 57.069 76.1737C57.2693 76.0274 57.5155 75.9579 57.7628 75.9779C58.0101 75.9978 58.242 76.1059 58.4163 76.2825C58.4651 76.2972 58.5361 76.3157 58.6292 76.335C58.7675 76.3627 58.9168 76.3867 59.0726 76.4106L59.1095 76.4162C59.2367 76.4346 59.4045 76.4613 59.5336 76.4917C61.4013 76.9342 63.4322 77.103 65.4087 77.1288L65.8438 77.1361C66.8523 77.1564 68.1282 77.1804 69.1828 76.9518C69.7876 76.8218 70.1729 76.6346 70.3785 76.4374C70.526 76.2963 70.644 76.0981 70.5795 75.6575C70.4264 74.6065 70.0715 73.6081 69.6226 72.5692C69.4529 72.1783 69.2538 71.7478 69.0482 71.3016C68.7416 70.6508 68.4499 69.993 68.1734 69.3288L67.9724 68.8328C66.5334 65.2836 65.1146 61.786 63.5225 58.3179C63.408 58.0684 63.3973 57.7836 63.4927 57.5262C63.5881 57.2688 63.7819 57.0598 64.0314 56.9452ZM48.8638 79.5432C48.8443 79.4087 48.7985 79.2793 48.729 79.1625C48.6596 79.0457 48.5677 78.9437 48.4589 78.8624C48.35 78.7811 48.2261 78.722 48.0944 78.6885C47.9627 78.6551 47.8257 78.6479 47.6912 78.6674C47.4195 78.7067 47.1747 78.8524 47.0104 79.0723C46.9291 79.1812 46.87 79.305 46.8365 79.4368C46.8031 79.5685 46.7959 79.7055 46.8154 79.84C47.1592 82.2138 48.6333 84.2051 50.3895 85.5888C52.1401 86.9661 54.3029 87.8474 56.2148 87.8778C56.4849 87.8756 56.7434 87.7678 56.9352 87.5776C57.127 87.3874 57.2368 87.1297 57.2413 86.8597C57.2457 86.5896 57.1444 86.3285 56.959 86.132C56.7736 85.9356 56.5188 85.8194 56.2489 85.8082C54.8892 85.7861 53.1514 85.1279 51.67 83.9626C50.1959 82.8011 49.1099 81.244 48.8638 79.5432Z" fill="#1D2939"/>
</g>
</g>
<defs>
<clipPath id="clip0_1_205">
<rect width="118" height="118" fill="white" transform="translate(0.400391)"/>
</clipPath>
</defs>
</svg>
