<svg width="119" height="118" viewBox="0 0 119 118" fill="none" xmlns="http://www.w3.org/2000/svg">
<g clip-path="url(#clip0_1_147)">
<mask id="mask0_1_147" style="mask-type:luminance" maskUnits="userSpaceOnUse" x="0" y="0" width="119" height="118">
<path d="M0.599609 0H118.6V118H0.599609V0Z" fill="white"/>
</mask>
<g mask="url(#mask0_1_147)">
<path d="M59.3184 117.438C91.7479 117.438 118.037 91.1483 118.037 58.7188C118.037 26.2893 91.7479 0 59.3184 0C26.8889 0 0.599609 26.2893 0.599609 58.7188C0.599609 91.1483 26.8889 117.438 59.3184 117.438Z" fill="white"/>
<path d="M73.9397 29.2138C60.7754 29.2138 58.0521 39.5766 58.006 39.7573C57.959 39.5748 55.233 29.2129 42.0724 29.2129C35.0587 29.2129 26.1387 34.486 26.1387 47.6661C26.1387 54.1515 28.9827 58.9913 32.5125 62.7682C37.2924 62.3276 37.9433 66.6447 40.1604 68.3198C50.0392 78.0962 49.0841 72.7346 49.0841 72.7346C49.0841 72.7346 44.9053 68.2276 76.5957 68.7549C82.3546 64.4055 89.8734 58.2105 89.8734 47.6661C89.8734 34.4851 80.9561 29.2129 73.9397 29.2129V29.2138Z" fill="#1D2939"/>
<path d="M92.4163 82.3232C92.5498 82.3508 92.6874 82.3518 92.8213 82.326C92.9552 82.3002 93.0827 82.2483 93.1964 82.1731C93.3101 82.0979 93.4079 82.0009 93.484 81.8878C93.5601 81.7747 93.6131 81.6477 93.64 81.514C93.6669 81.3803 93.667 81.2427 93.6405 81.1089C93.6139 80.9752 93.5612 80.848 93.4854 80.7348C93.4095 80.6215 93.312 80.5243 93.1984 80.4488C93.0849 80.3734 92.9576 80.3211 92.8237 80.295L92.4163 82.3232ZM64.3083 78.9518C64.4367 78.9074 64.5552 78.8381 64.6568 78.7479C64.7585 78.6577 64.8414 78.5484 64.9008 78.4261C64.9602 78.3039 64.995 78.1711 65.0031 78.0355C65.0112 77.8998 64.9925 77.7639 64.9481 77.6354C64.9036 77.507 64.8343 77.3885 64.7441 77.2869C64.6539 77.1852 64.5446 77.1023 64.4224 77.0429C64.3001 76.9835 64.1674 76.9487 64.0317 76.9406C63.896 76.9325 63.7601 76.9512 63.6316 76.9956L64.3083 78.9518ZM87.6502 97.158C87.8898 97.2917 88.1727 97.3248 88.4367 97.2499C88.7007 97.1751 88.9241 96.9984 89.0579 96.7588C89.1916 96.5192 89.2247 96.2363 89.1498 95.9723C89.075 95.7083 88.8983 95.4848 88.6587 95.3511L87.6502 97.158ZM30.8553 67.1104L29.8403 66.9076L29.8311 66.9573L29.8256 67.008L30.8553 67.1104ZM49.4679 78.2604C49.7355 78.2382 49.9839 78.1128 50.1608 77.9109C50.3377 77.7089 50.4292 77.4462 50.416 77.178C50.4029 76.9099 50.2861 76.6573 50.0903 76.4737C49.8945 76.29 49.635 76.1896 49.3665 76.1936L49.4679 78.2604ZM92.8237 80.295C92.2789 80.1844 91.3091 79.9097 90.2674 79.4469C89.2201 78.9841 88.1683 78.3619 87.4003 77.5893L85.9336 79.0505C86.9505 80.0719 88.2558 80.8205 89.4285 81.3395C90.6075 81.8622 91.7212 82.1839 92.4153 82.3241L92.8237 80.295ZM87.4003 77.5893C85.3722 75.552 83.1717 71.0136 75.6667 69.8244L75.3422 71.8691C81.976 72.92 83.4962 76.6029 85.9336 79.0505L87.4003 77.5893ZM75.6667 69.8244C69.6791 68.8748 67.6907 69.0518 65.1546 69.5487C62.7927 70.0124 59.9524 70.7481 52.0391 70.9334L52.0879 73.0012C60.1746 72.8131 63.1486 72.0525 65.5528 71.5805C67.7838 71.1427 69.5169 70.9444 75.3431 71.8691L75.6658 69.8253L75.6667 69.8244ZM52.0391 70.9334C50.683 70.9647 49.5961 71.3685 48.8328 72.1042C48.0722 72.8361 47.745 73.7912 47.7007 74.7149C47.6574 75.6313 47.8869 76.5587 48.2907 77.3432C48.6908 78.1212 49.3066 78.8412 50.1105 79.245L51.0397 77.3948C50.7272 77.2381 50.3889 76.897 50.1308 76.3964C49.8763 75.9086 49.7512 75.3636 49.7676 74.8136C49.7924 74.3028 49.9639 73.8871 50.2691 73.5939C50.5705 73.3026 51.1144 73.0242 52.0879 73.0012L52.0391 70.9334ZM50.1105 79.245C51.4426 79.9134 53.6818 80.2794 56.1571 80.2775C58.6701 80.2766 61.5777 79.8959 64.3083 78.9518L63.6316 76.9956C61.1536 77.853 58.4793 78.207 56.1552 78.2079C53.7934 78.2097 51.9413 77.8474 51.0397 77.3948L50.1105 79.245ZM88.6596 95.352C87.4888 94.6984 85.4598 93.7397 83.1118 92.9404C80.7721 92.1448 78.0461 91.4838 75.5045 91.4838V93.5534C77.7253 93.5534 80.2079 94.1388 82.4453 94.9003C84.6744 95.6581 86.5891 96.567 87.6511 97.1589L88.6596 95.352ZM75.5045 91.4838C69.5556 91.4838 61.1306 91.1344 54.9614 89.3128L54.3751 91.2976C60.8559 93.2123 69.5464 93.5534 75.5045 93.5534V91.4838ZM54.9614 89.3128C48.9434 87.5354 44.1036 85.2907 40.959 81.4308L39.355 82.738C42.9079 87.0985 48.2566 89.4907 54.3751 91.2976L54.9614 89.3128ZM40.959 81.4308C39.2591 79.3436 36.8816 76.5845 34.9558 73.8603C33.9952 72.5015 33.1729 71.1869 32.617 70.0069C32.0473 68.7992 31.8205 67.8626 31.885 67.2136L29.8256 67.008C29.7039 68.2268 30.1279 69.5819 30.7447 70.8891C31.3743 72.2259 32.2731 73.6511 33.266 75.0551C35.2462 77.8557 37.7067 80.7154 39.355 82.738L40.959 81.4308ZM31.8694 67.3123C32.1007 66.1525 32.7239 65.7027 33.2522 65.6068C33.8173 65.5026 34.5981 65.7395 35.2296 66.6006L36.8982 65.3772C35.8869 63.9972 34.3612 63.2993 32.8806 63.5704C31.3651 63.8469 30.2044 65.0786 29.8403 66.9076L31.8703 67.3132L31.8694 67.3123ZM35.2296 66.6006C36.9203 68.9089 39.2591 71.8267 41.7233 74.1526C42.9549 75.3151 44.2446 76.3559 45.5251 77.097C46.7917 77.8308 48.1423 78.3268 49.4679 78.2604L49.3665 76.1936C48.6088 76.2305 47.6666 75.9456 46.5631 75.3058C45.4716 74.6744 44.311 73.7488 43.1439 72.6472C40.8115 70.4448 38.5566 67.6423 36.8991 65.3782L35.2296 66.6006Z" fill="#1D2939"/>
<path fill-rule="evenodd" clip-rule="evenodd" d="M57.7328 21.1816C58.3043 21.1816 58.7671 21.6453 58.7671 22.2169V28.8765C58.7712 29.015 58.7475 29.1529 58.6974 29.2821C58.6472 29.4113 58.5717 29.529 58.4752 29.6285C58.3787 29.7279 58.2632 29.8069 58.1356 29.8609C58.008 29.9149 57.8709 29.9427 57.7323 29.9427C57.5937 29.9427 57.4566 29.9149 57.329 29.8609C57.2014 29.8069 57.0859 29.7279 56.9894 29.6285C56.8929 29.529 56.8174 29.4113 56.7672 29.2821C56.7171 29.1529 56.6934 29.015 56.6975 28.8765V22.2169C56.6975 21.6453 57.1612 21.1816 57.7328 21.1816ZM68.4459 22.6161C68.9252 22.9258 69.0635 23.5665 68.7529 24.0468L65.2645 29.438C65.1122 29.6613 64.8787 29.8162 64.6138 29.8696C64.3488 29.9231 64.0735 29.8708 63.8466 29.7239C63.6197 29.5771 63.4592 29.3473 63.3994 29.0837C63.3397 28.8201 63.3854 28.5436 63.5268 28.3133L67.0151 22.9221C67.1644 22.692 67.3989 22.5305 67.6672 22.4731C67.9354 22.4157 68.2155 22.4671 68.4459 22.6161ZM46.7154 24.0468C46.5741 23.8165 46.5284 23.54 46.5881 23.2764C46.6479 23.0128 46.8084 22.783 47.0353 22.6362C47.2622 22.4893 47.5375 22.437 47.8024 22.4905C48.0674 22.5439 48.3009 22.6988 48.4532 22.9221L51.9425 28.3142C52.0163 28.4283 52.067 28.5558 52.0915 28.6895C52.1161 28.8232 52.1141 28.9604 52.0856 29.0933C52.0572 29.2262 52.0028 29.3522 51.9256 29.4641C51.8485 29.576 51.75 29.6716 51.6359 29.7454C51.5218 29.8192 51.3943 29.8699 51.2606 29.8945C51.127 29.919 50.9898 29.917 50.8569 29.8886C50.724 29.8601 50.598 29.8057 50.4861 29.7286C50.3742 29.6514 50.2786 29.553 50.2047 29.4389L46.7154 24.0468Z" fill="#F49819"/>
</g>
</g>
<defs>
<clipPath id="clip0_1_147">
<rect width="118" height="118" fill="white" transform="translate(0.599609)"/>
</clipPath>
</defs>
</svg>
