<svg width="119" height="118" viewBox="0 0 119 118" fill="none" xmlns="http://www.w3.org/2000/svg">
<g clip-path="url(#clip0_1_192)">
<mask id="mask0_1_192" style="mask-type:luminance" maskUnits="userSpaceOnUse" x="0" y="0" width="119" height="118">
<path d="M0.199219 0H118.199V118H0.199219V0Z" fill="white"/>
</mask>
<g mask="url(#mask0_1_192)">
<path d="M58.918 117.438C91.3476 117.438 117.637 91.1483 117.637 58.7188C117.637 26.2893 91.3476 0 58.918 0C26.4885 0 0.199219 26.2893 0.199219 58.7188C0.199219 91.1483 26.4885 117.438 58.918 117.438Z" fill="white"/>
<path fill-rule="evenodd" clip-rule="evenodd" d="M40.4445 29.7434C41.6788 29.4995 42.9321 29.3641 44.1901 29.3387C40.4934 30.6081 37.2576 33.3581 35.3216 36.521C35.1972 36.7248 35.0764 36.9313 34.9603 37.1387C33.2926 37.6927 31.7005 38.457 30.3103 39.5015C30.2415 39.5529 30.1733 39.6051 30.1057 39.6582C30.2562 38.5778 30.599 37.5331 31.1179 36.5736C33.0308 33.0105 36.4906 30.5418 40.4445 29.7434ZM27.9835 41.8117C27.8268 39.7485 28.2048 37.6245 29.2944 35.5946C31.5134 31.4627 35.506 28.6289 40.0352 27.7153C43.9402 26.9271 47.8306 27.3005 51.5632 27.8222C56.0592 28.4519 59.3973 29.1737 63.6121 30.9797C64.9701 31.56 66.2807 32.2455 67.532 33.0299C68.3709 33.0207 69.183 33.1295 69.8864 33.3009C71.508 33.6955 72.8088 34.4855 73.7989 35.5208C75.1489 35.626 76.4836 35.8773 77.7795 36.2703C83.1577 37.9334 86.4083 41.8015 87.7699 47.0774C88.0621 48.2123 88.1737 49.3268 88.1995 50.4294C89.6007 51.7642 90.9052 53.3121 91.7597 55.0563C93.6192 58.8544 92.3922 63.2729 90.9688 66.5484C93.4947 70.5751 92.8817 75.4952 91.0803 79.4454C89.8496 82.1465 88.11 85.0089 85.5537 86.9283C81.6615 89.8506 76.3681 90.8628 71.7984 91.1246C71.5845 91.3247 71.3633 91.5238 71.1374 91.7146C70.5271 92.2272 69.8191 92.7305 69.066 93.0182C68.2943 93.3132 67.3854 93.4118 66.5031 92.9629C65.7721 92.5913 65.1185 91.9912 64.5718 91.3772C62.9502 91.3182 61.3499 91.1283 59.7854 90.9098C59.4465 90.8626 59.1079 90.8134 58.7695 90.7623C57.1387 91.3357 55.3899 91.5662 53.5655 91.2767C51.8232 91.0002 50.2837 90.1945 48.9396 89.1509C45.9416 91.0241 42.2652 91.4252 39.0958 91.5579C36.3606 91.6731 33.5369 91.4713 30.8358 90.636C24.6795 88.7333 20.9579 84.312 19.3981 78.2636C18.963 76.5774 18.8782 74.93 18.9021 73.2891V72.96C18.8986 72.6988 18.9002 72.4376 18.9067 72.1764C18.9215 71.7616 18.9676 71.2508 19.1418 70.7752C19.4359 69.9704 20.1642 69.6947 20.686 69.6136C21.2087 69.5306 21.783 69.5887 22.266 69.6689C22.7666 69.7519 23.2635 69.8773 23.6572 69.9805L23.9125 70.0478C24.1928 70.1216 24.3486 70.163 24.4232 70.1741C25.1266 70.2755 25.8245 70.3363 26.5251 70.3631C26.4308 70.0419 26.3417 69.7192 26.2578 69.3951C25.7319 68.7331 25.2768 68.0178 24.8998 67.261C23.2746 63.9404 24.331 60.098 25.5525 57.2642C23.3778 53.7361 23.9263 49.4531 25.4852 46.032C26.1333 44.6105 26.9455 43.1309 27.9835 41.8117ZM26.4403 54.0957C25.8586 51.8002 26.302 49.2319 27.3695 46.8912C27.7171 46.1261 28.1043 45.3729 28.5366 44.6557C28.7192 45.2374 28.9413 45.808 29.1976 46.363C29.4355 46.8774 29.7028 47.3798 29.9987 47.8684C28.4592 49.7029 27.2589 51.8417 26.4403 54.0957ZM28.1504 68.4447C27.5937 66.1356 27.2908 63.7727 27.2469 61.3978C27.2353 60.7399 27.2617 60.0818 27.3262 59.4269C28.7459 60.7912 30.5141 61.8929 32.3136 62.7548C32.4399 63.2932 32.5846 63.8242 32.7487 64.3478C33.2972 66.092 34.2006 67.6648 35.6286 68.7811C35.5797 69.0243 35.5409 69.2695 35.5125 69.5159C34.019 69.8846 32.4057 70.0303 30.7058 70.1842L29.9591 70.2525L29.9222 70.2561C29.2893 69.6951 28.6972 69.0898 28.1504 68.4447ZM29.5203 72.6346C31.1455 76.4954 33.6927 79.8317 37.3286 81.7584C37.9776 82.1022 38.6533 82.4055 39.3502 82.671C39.0759 82.1656 38.8568 81.6322 38.6966 81.0799C38.3965 80.0301 38.2832 78.9358 38.362 77.8469C38.2514 77.5758 38.1481 77.2993 38.0522 77.0199C35.0497 76.2575 32.2066 74.7521 30.0153 73.031C29.8522 72.9019 29.6862 72.7701 29.5203 72.6346ZM48.0629 83.7957C47.8619 83.9248 47.6379 84.029 47.3973 84.1101C47.2458 84.1089 47.0943 84.1065 46.9428 84.1027C46.7413 83.8414 46.5437 83.5771 46.35 83.3099C45.5479 82.2193 44.8322 81.0678 44.2094 79.8658C44.7847 80.1792 45.3728 80.4678 45.9702 80.7268C46.5578 81.8208 47.2593 82.8489 48.0629 83.7957ZM60.1514 87.8381C58.4017 87.3302 56.6769 86.3014 55.1512 85.1712C56.5545 84.7655 57.8884 84.1501 59.1079 83.3458C59.452 83.6225 59.8062 83.8864 60.1699 84.1368C60.4805 84.3525 60.8115 84.5627 61.1572 84.7628C61.2872 85.4403 61.4734 86.1115 61.7214 86.7715L61.5656 86.8895C61.1046 87.2371 60.6326 87.5542 60.1514 87.8381ZM68.5377 89.1232C68.1846 89.1177 67.8279 89.1085 67.4711 89.0937C70.1805 87.8492 72.5082 85.7169 73.9759 83.3163C74.3961 82.6257 74.7661 81.9057 75.083 81.1619C76.1825 80.7408 77.2567 80.2567 78.3004 79.7118C78.2589 80.9083 77.9409 82.079 77.3711 83.132C76.4821 84.7808 75.1996 86.1846 73.6375 87.2186C73.4726 87.1631 73.2964 87.15 73.1251 87.1806C72.9538 87.2112 72.793 87.2845 72.6576 87.3938C72.3458 87.6575 72.0482 87.9375 71.7661 88.2327C71.0102 88.5591 70.2155 88.808 69.3969 88.9739C69.1111 89.0311 68.8253 89.0808 68.5377 89.1232ZM75.1245 88.7084C78.4718 88.2032 81.7777 87.1772 84.311 85.2744C86.4617 83.6602 88.0234 81.1628 89.1969 78.5871C90.648 75.4057 91.1209 71.8372 89.8312 68.8272C87.58 72.7968 84.2354 76.1137 80.3359 78.5466C80.4954 80.3903 80.1699 82.2931 79.1946 84.1119C78.2114 85.9381 76.8182 87.5114 75.1245 88.7084ZM79.9183 76.3553C83.5827 73.9188 86.6526 70.636 88.5839 66.7659C87.1568 64.9886 85.0411 63.532 82.7696 62.399C82.6701 66.2561 81.2024 70.3354 78.6332 73.4357C78.871 73.8358 79.0877 74.2469 79.2822 74.6673C79.5348 75.214 79.7486 75.7791 79.9183 76.3553ZM82.6996 60.0731C85.1831 61.2015 87.6602 62.7189 89.5012 64.6714C90.6212 61.7463 91.1734 58.5668 89.9003 55.9671C89.4422 55.0305 88.8153 54.1408 88.0879 53.3019C88.0611 53.4176 88.0272 53.5315 87.9865 53.643C87.7072 54.4082 87.0158 54.6635 86.5419 54.7382C86.0662 54.8129 85.5518 54.7603 85.1296 54.6894C84.6899 54.6156 84.2548 54.5068 83.9137 54.4174C83.7654 54.3789 83.6173 54.3399 83.4693 54.3003C83.406 54.2841 83.3424 54.2691 83.2785 54.2552L83.2665 54.2533C82.7321 54.1762 82.1944 54.1245 81.6551 54.0984C82.2211 56.0832 82.5585 58.1178 82.6996 60.0731ZM85.9556 48.4971C85.9055 48.194 85.8421 47.8932 85.7657 47.5955C84.5617 42.929 81.7795 39.6739 77.1683 38.2477C76.5691 38.0633 75.956 37.9168 75.3347 37.8052C75.5218 38.2127 75.6776 38.6349 75.803 39.0663C76.1496 40.2519 76.2732 41.5204 76.1819 42.7833C76.3257 43.1327 76.4575 43.4867 76.5783 43.8472C80.0519 44.7128 83.3513 46.4515 85.892 48.4473L85.9556 48.4971ZM67.7827 35.6904C67.5172 35.4987 67.248 35.3125 66.9751 35.1299C66.0652 35.223 65.2328 35.5171 64.6465 36.0546C64.4925 36.1965 64.3441 36.3496 64.2021 36.5155C65.3692 36.0961 66.587 35.8453 67.7827 35.6904ZM64.5285 38.6036C66.1971 37.9334 68.109 37.6752 70.045 37.5646C71.6951 39.13 73.0549 40.9331 73.9869 42.941C73.673 42.7426 73.3516 42.5563 73.0236 42.3823C72.4141 42.0597 71.7862 41.7734 71.1429 41.525C69.8152 40.6766 68.4135 39.9499 66.9549 39.354C66.1678 39.0375 65.3568 38.7866 64.5285 38.6036ZM77.7943 46.363C80.256 47.2161 82.56 48.4698 84.6134 50.0735C85.1259 50.4764 85.6376 50.8995 86.1345 51.3411L86.1335 51.39C86.1308 51.5605 86.1326 51.6923 86.1335 51.8168C86.1363 51.9735 86.1372 52.1182 86.1308 52.3118C86.1252 52.4686 86.1133 52.5976 86.0976 52.7036C85.887 52.7046 85.6768 52.6858 85.4698 52.6474C85.0721 52.5767 84.6782 52.4856 84.2898 52.3745C84.0503 52.3056 83.8076 52.2487 83.5624 52.204C82.7012 52.0805 81.8327 52.0146 80.9627 52.0067C80.1884 49.9703 79.1467 48.0399 77.7943 46.363ZM79.1199 54.1344L79.5016 54.1104C80.016 55.7606 80.3571 57.479 80.5424 59.1853C79.9063 58.9489 79.2634 58.731 78.6147 58.5317C78.246 58.4193 77.8763 58.3133 77.5057 58.2165C77.9869 57.1867 78.5834 55.8841 78.9991 54.5446C79.0406 54.41 79.0812 54.2736 79.119 54.1353L79.1199 54.1344ZM63.5946 43.0627C63.6343 42.775 63.661 42.4856 63.6739 42.1961L63.732 42.198C63.8915 42.4063 64.0482 42.6165 64.2021 42.8276C64.6843 43.4895 65.124 44.1569 65.5186 44.8336C65.3102 44.9461 65.1074 45.0641 64.9092 45.1876C64.5275 44.4459 64.088 43.7353 63.5946 43.0627ZM75.5532 57.5057C75.3751 57.1654 75.1721 56.8388 74.9457 56.5285C75.4814 55.8736 75.9381 55.1579 76.3064 54.3962C76.499 54.375 76.6936 54.3556 76.8908 54.3363C76.5055 55.4665 75.9966 56.5543 75.5541 57.5048L75.5532 57.5057ZM76.5424 60.2861L76.618 60.1266C77.0817 60.2409 77.5444 60.37 78.0072 60.5119C78.883 60.7793 79.7901 61.0982 80.6972 61.4661L80.7028 61.715C80.7691 65.1748 79.5541 68.8494 77.3914 71.6694C77.3187 71.5806 77.2449 71.4927 77.1702 71.4057C77.1683 71.272 77.1655 71.1384 77.1609 71.0038L77.1729 70.8397C77.385 67.5025 77.396 63.7376 76.5433 60.2861H76.5424ZM72.1708 66.3474C72.7056 65.9505 73.197 65.4981 73.6366 64.9978L73.6938 65.1204C74.3115 66.4442 74.7314 67.8515 74.9401 69.2974C74.2477 68.7661 73.507 68.301 72.7276 67.9081C72.4433 67.7657 72.1536 67.6341 71.8592 67.5136L71.8629 67.5034C71.9874 67.1172 72.0897 66.7318 72.1708 66.3474ZM60.7967 82.0377L60.9193 82.129V82.081C60.8808 82.0647 60.8424 82.0481 60.8041 82.0313L60.7967 82.0377ZM64.5884 84.0474C64.063 83.8738 63.5496 83.6656 63.0516 83.4242C63.0277 83.1947 63.0102 82.9633 63 82.7328C63.8035 82.8992 64.62 82.9948 65.4402 83.0186C65.1673 83.3661 64.8834 83.7109 64.5884 84.0474ZM65.2586 86.3714C65.5923 86.4433 65.9279 86.5005 66.2644 86.5429C66.7502 86.6038 67.2425 86.6314 67.7338 86.6194C66.7565 87.2044 65.6973 87.64 64.5912 87.9119L64.5773 87.8907C64.464 87.71 64.3561 87.5275 64.2547 87.3431C64.6004 87.0297 64.9341 86.7042 65.2586 86.3714ZM66.8857 84.5277C67.3162 83.9902 67.7191 83.4454 68.0934 82.9024C69.4509 82.7395 70.795 82.4798 72.1155 82.1253C71.8606 82.4793 71.5776 82.8123 71.2692 83.1209C70.115 84.2686 68.5764 84.666 66.8857 84.5277ZM76.075 78.4986C76.7544 78.1852 77.4227 77.845 78.0764 77.479C77.9189 76.8094 77.6934 76.1576 77.4034 75.5339C77.3208 75.3555 77.2335 75.1794 77.1416 75.0056C77.0374 75.1015 76.9314 75.1955 76.8244 75.2877C76.6413 76.3728 76.391 77.4446 76.075 78.4986ZM73.5048 79.5348C72.2039 79.9872 70.8708 80.341 69.5168 80.5931C69.8671 79.9506 70.2211 79.2195 70.4949 78.4488C71.3799 78.2341 72.2492 77.9603 73.0881 77.6136C73.4845 77.4495 73.8689 77.267 74.2441 77.067C74.048 77.9038 73.8011 78.728 73.5048 79.5348ZM70.9862 76.17C71.0544 74.8996 70.7327 73.5767 69.6034 72.5101C69.3921 72.3088 69.1635 72.1265 68.9203 71.9653C69.7816 71.257 70.4999 70.3909 71.0369 69.4135C71.2932 69.5177 71.5476 69.632 71.7975 69.7574C72.9857 70.3615 74.0679 71.1545 75.0019 72.1054C74.9374 72.8346 74.8581 73.5666 74.7567 74.294C73.9979 74.8633 73.171 75.3359 72.2953 75.7007C71.8694 75.8777 71.4324 76.0326 70.9862 76.17ZM68.8429 76.6798C67.4195 76.9324 65.9399 77.0402 64.4575 77.0623C64.8659 76.1986 65.2061 75.2942 65.4762 74.3613C65.6325 74.183 65.804 74.0186 65.9887 73.8699C66.3815 73.5583 66.7244 73.4338 67.0175 73.4329C67.2923 73.4329 67.6804 73.5399 68.181 74.0137C68.8816 74.6756 69.054 75.5643 68.8429 76.6798ZM63.342 79.1338C64.8871 79.1522 66.4847 79.0942 68.0657 78.8913C67.8244 79.3853 67.5617 79.8685 67.2784 80.3396C67.1623 80.5351 67.0415 80.7323 66.9161 80.9296C65.6071 81.0089 64.2989 80.9296 63.0839 80.6272C63.1438 80.1294 63.2305 79.6316 63.342 79.1338ZM60.794 79.0416C60.6769 79.1863 60.5561 79.3274 60.4335 79.4657L60.393 79.438C60.1806 79.2901 59.9766 79.1307 59.7817 78.9605C60.1256 78.9955 60.4639 79.0223 60.794 79.0416ZM61.9712 76.4539C61.3499 76.2806 60.7221 76.1128 60.0906 75.9441C60.1671 75.6353 60.2242 75.3218 60.2639 75.0066C61.1364 74.9073 62.0002 74.7424 62.8479 74.5134C62.4942 75.1306 62.2006 75.7805 61.9712 76.4539ZM73.6329 54.8424C73.5802 54.9148 73.5264 54.9864 73.4716 55.0572C73.4133 55.0153 73.3543 54.9745 73.2946 54.9346C73.4061 54.9023 73.5186 54.8719 73.6329 54.8424ZM74.8498 52.4916C73.5656 52.688 72.2649 53.0005 71.0332 53.5803C70.7843 53.1563 70.5179 52.7507 70.2377 52.3625C72.1708 50.9797 73.8145 49.2521 74.8728 47.3015L74.954 47.1503C75.06 47.2498 75.1642 47.3531 75.2692 47.4563C75.3236 47.9265 75.355 48.4049 75.3642 48.8908C75.3863 50.1749 75.225 51.3771 74.8498 52.4916ZM77.077 52.2353C77.2153 51.673 77.3112 51.0996 77.3684 50.5142C77.4827 51.0194 77.491 51.5882 77.4135 52.2058L77.077 52.2353ZM69.7113 50.1676C69.4347 48.6585 68.983 47.2342 68.3745 45.867C68.5903 45.7997 68.8124 45.738 69.0383 45.6826C70.2828 45.3757 71.5919 45.2816 72.9185 45.36C73.0632 45.4789 73.207 45.5978 73.349 45.7186C73.2583 45.9211 73.1599 46.1201 73.054 46.3151C72.2879 47.7264 71.1245 49.042 69.7113 50.1676ZM66.47 46.6801C66.859 47.5485 67.1743 48.4381 67.414 49.3591C67.0222 49.0327 66.6175 48.723 66.2008 48.4298C66.0699 47.9853 65.9232 47.5456 65.761 47.1115C65.9897 46.9594 66.2247 46.8147 66.47 46.6801ZM66.8894 51.6628C66.9622 51.732 67.0341 51.803 67.1051 51.874L66.929 51.9661L66.8894 51.6628ZM64.4077 49.7149C64.5183 50.1547 64.6151 50.5999 64.6963 51.0498C64.4384 50.7368 64.1222 50.4769 63.7652 50.2846C63.5029 50.1424 63.2267 50.0275 62.941 49.9417C63.1199 49.6744 63.3107 49.4162 63.5126 49.1673C63.8168 49.3434 64.1164 49.5269 64.4077 49.7149ZM63.2277 46.4506L63.0765 46.5888C62.8974 46.5003 62.7173 46.4137 62.5363 46.3289C62.6402 46.1216 62.7401 45.9123 62.8359 45.7011C62.9742 45.9463 63.1033 46.1961 63.2277 46.4506ZM67.4269 43.9984C67.7943 43.8733 68.1671 43.7644 68.5442 43.672C69.0835 43.5402 69.6283 43.4416 70.1787 43.3743C68.9716 42.9324 67.7224 42.6157 66.4506 42.4293C66.7957 42.9399 67.1213 43.4632 67.4269 43.9984ZM57.2862 48.3423C57.4225 47.8998 57.5716 47.4614 57.7333 47.0277C57.7214 47.3448 57.6163 47.7126 57.4033 48.1275C57.3664 48.1994 57.3277 48.2703 57.2862 48.3423ZM55.8813 46.0717C55.7746 46.3545 55.6716 46.6388 55.5725 46.9244C55.4572 46.7474 55.3374 46.5741 55.2102 46.4045C55.2535 46.2395 55.2941 46.0744 55.3328 45.9094C55.5162 45.9629 55.6988 46.0164 55.8813 46.0717ZM57.1286 43.2489C57.043 43.1987 56.9566 43.1499 56.8695 43.1023C57.0014 43.059 57.136 43.0175 57.2715 42.9779L57.1286 43.2489ZM58.8036 44.5211C59.0848 43.955 59.3909 43.4047 59.7237 42.8783C59.6545 43.6287 59.6315 44.3828 59.6435 45.1332C59.4846 45.0752 59.3254 45.018 59.1659 44.9617C59.0558 44.8067 58.9347 44.6588 58.8036 44.5211ZM59.071 35.9338C58.4796 35.3198 57.8376 34.7567 57.1516 34.2505C54.7207 32.4335 51.8131 30.7999 48.9728 30.6736C46.4745 30.5611 43.9568 31.3991 41.7785 32.8142C42.5436 32.7478 43.3161 32.7727 44.0758 32.8677C46.6303 33.1857 49.1498 34.3049 51.0488 35.6213C51.4849 35.9237 51.9237 36.2463 52.3487 36.593L52.4326 36.6114C54.1602 35.7965 56.073 35.3908 58.0929 35.7116C58.4232 35.764 58.7505 35.8382 59.071 35.9338ZM43.4037 34.8783C41.5563 34.7252 39.8434 35.1124 38.504 36.2648C39.7396 36.0549 40.9861 35.9145 42.2375 35.8444C42.4138 35.6797 42.5942 35.5195 42.7787 35.3641C42.975 35.1982 43.1843 35.0331 43.4037 34.8783ZM33.6853 39.8748C32.8777 41.8255 32.3606 43.9099 32.0407 45.796C31.8508 45.9591 31.6646 46.1263 31.482 46.2975C31.3377 46.0346 31.2024 45.7668 31.0764 45.4946C30.6255 44.5317 30.3103 43.511 30.1398 42.4616C30.5758 41.9767 31.046 41.537 31.5539 41.1562C32.2085 40.664 32.9248 40.2399 33.6853 39.8748ZM36.4869 38.8359C37.6495 38.5146 38.8338 38.278 40.0306 38.1279C39.9453 38.3403 39.9329 38.575 39.9953 38.7952C40.0578 39.0155 40.1915 39.2088 40.3755 39.3449C40.5596 39.481 40.7836 39.5521 41.0124 39.5473C41.2413 39.5424 41.4621 39.4618 41.6402 39.318C41.9425 39.0746 42.3104 38.6985 42.6635 38.3371L42.7925 38.2044C42.8995 38.0947 43.0082 37.9841 43.1179 37.8744C44.6981 37.8144 46.2805 37.8553 47.8555 37.997C48.0647 38.2929 48.2574 38.587 48.4261 38.8543C48.5035 38.976 48.5773 39.1005 48.6473 39.2249C47.9079 39.9093 47.2175 40.6449 46.5814 41.4263C43.1244 41.4448 39.5014 41.8375 36.2721 43.1733C35.7113 43.4054 35.1652 43.6714 34.6367 43.9698C34.9132 42.7409 35.2636 41.5416 35.7116 40.3966C35.9457 39.8545 36.2048 39.3309 36.4869 38.8359ZM49.5287 41.49C49.4524 41.4865 49.3762 41.4831 49.3 41.4798L49.4807 41.2954L49.5287 41.49ZM51.6729 41.6384C51.5634 41.0112 51.399 40.3949 51.1816 39.7965L51.2332 39.7577C51.5153 39.5457 51.8002 39.3466 52.0905 39.1622C52.6796 39.7882 53.1332 40.4565 53.4061 41.2014C53.227 41.3946 53.0575 41.5964 52.8981 41.8062C52.487 41.737 52.0776 41.6817 51.6729 41.6384ZM55.3862 39.6333C55.2793 39.6951 55.1742 39.7587 55.0691 39.825C55.0061 39.6968 54.9394 39.5705 54.8691 39.4462C55.0433 39.507 55.2157 39.5688 55.3862 39.6333ZM59.4978 38.3233C59.0376 38.3779 58.5809 38.4582 58.1297 38.5639C57.4738 38.2424 56.8025 37.9532 56.1182 37.6974C56.6686 37.6498 57.2227 37.6693 57.7684 37.7554C58.3706 37.8549 58.9539 38.0464 59.4978 38.3233ZM40.698 44.0177C39.4541 44.2513 38.2366 44.6089 37.064 45.0853C36.0158 45.5185 35.0359 46.0901 34.1306 46.7723L34.066 47.2489C36.1159 45.869 38.348 44.7815 40.698 44.0177ZM48.864 47.4139C49.0493 47.0701 49.2475 46.7345 49.4586 46.4091C49.5535 45.9961 49.6291 45.584 49.6826 45.1719C48.7045 44.9433 47.6563 44.8806 46.6008 44.9396C46.5067 45.089 46.4155 45.2383 46.327 45.3858C45.9103 46.0864 45.4789 46.8995 45.2041 47.7089C46.0827 47.5061 47.011 47.4029 47.979 47.3992C48.2758 47.3992 48.5708 47.4029 48.864 47.4139ZM42.893 48.5349C42.4487 48.758 42.0227 49.0134 41.618 49.3019C40.4012 50.1685 39.4037 51.3125 38.6533 52.7009C38.3051 52.5645 37.9633 52.4122 37.6291 52.2445C36.3442 51.5924 35.1651 50.7502 34.1315 49.7463C37.0472 47.5359 40.4239 46.0117 44.0103 45.2872C43.5982 46.0754 43.1981 46.9972 42.9935 47.9422C42.952 48.1358 42.9179 48.334 42.893 48.5349ZM43.1336 50.7751C43.3463 51.3139 43.6763 51.7986 44.0997 52.1938C44.4224 52.499 44.7635 52.7414 45.1193 52.9129C44.8806 53.1434 44.651 53.3895 44.4307 53.6486C43.1585 53.6716 41.9047 53.5711 40.6879 53.3102C41.2974 52.2884 42.1343 51.4209 43.1336 50.7751ZM49.0889 59.8187C49.2604 59.7108 49.43 59.602 49.6006 59.4914C50.0997 59.9371 50.5131 60.4705 50.8202 61.065C50.398 61.3462 49.9518 61.6016 49.4844 61.8274C49.3136 61.1658 49.1816 60.4957 49.0889 59.8187ZM47.9698 67.1319L47.8536 67.1734C47.0507 67.4592 46.2108 67.7219 45.3581 67.9339C45.3931 66.9872 45.4742 66.0441 45.5978 65.1185C46.4802 64.9856 47.3521 64.79 48.2067 64.5331C48.3265 64.8281 48.4574 65.1195 48.5966 65.4071C48.3289 65.9586 48.1189 66.5372 47.9698 67.1319ZM51.6425 65.5601L51.6149 65.5739C51.5394 65.3181 51.4529 65.0656 51.3558 64.8171L51.4056 64.7479C51.4757 64.6521 51.5476 64.5571 51.6213 64.4622C51.6434 64.8309 51.6508 65.1969 51.6425 65.5601ZM48.1818 70.5475C47.7584 70.316 47.3418 70.0722 46.9327 69.8164C47.2129 69.68 47.4968 69.5528 47.7826 69.4348C47.8342 69.8634 47.9762 70.2331 48.1818 70.5475ZM55.4609 66.7281C55.0999 66.61 54.73 66.5212 54.3547 66.4626C54.7299 66.2488 55.1023 66.0293 55.4701 65.8035C55.507 66.021 55.5393 66.2386 55.5688 66.4552C55.5319 66.5456 55.495 66.6369 55.4609 66.7281ZM54.3823 61.6873C54.6294 62.317 54.8368 62.9733 55.0129 63.6472C54.5787 63.9265 54.1371 64.1967 53.69 64.4566C53.6562 63.7953 53.5792 63.1369 53.4595 62.4857C53.7656 62.2045 54.0744 61.9381 54.3823 61.6873ZM53.018 59.1153C52.8373 59.3292 52.6474 59.5357 52.4473 59.7357C52.1365 59.2093 51.7628 58.7227 51.3346 58.2865C51.5373 58.1372 51.7386 57.986 51.9384 57.833C52.3385 58.2321 52.6971 58.6617 53.018 59.1153ZM66.3593 68.5544C66.9456 68.5571 67.5264 68.5912 68.0989 68.6631C67.5595 69.411 66.9142 70.0765 66.1832 70.6387C66.2635 69.9528 66.3234 69.2559 66.3593 68.5544ZM64.2805 68.6668C64.2159 69.7291 64.0983 70.7875 63.9283 71.8381C63.5965 71.875 63.2535 71.8952 62.8986 71.8962C61.9286 71.9017 60.9601 71.8197 60.0048 71.6509C59.9769 71.5533 59.947 71.4562 59.9154 71.3596C60.2408 70.6544 60.5939 69.9556 60.9618 69.2679C62.053 68.9922 63.1619 68.7914 64.2805 68.6668ZM60.4142 63.9339C60.144 64.1258 59.8766 64.3216 59.6121 64.5212L59.4923 64.6106C59.407 64.523 59.3237 64.4336 59.2425 64.3423C59.5107 64.0197 59.7974 63.7127 60.1016 63.4195C60.2003 63.5947 60.3045 63.7671 60.4142 63.9339ZM63.5163 61.0715C63.1733 61.5693 62.8414 62.0671 62.5216 62.5649C62.3943 62.6387 62.2671 62.7161 62.1408 62.7926C61.9929 62.5664 61.8587 62.3315 61.7389 62.0892C62.2966 61.7094 62.8912 61.3693 63.5163 61.0715ZM73.6421 61.396C73.3881 61.155 73.1115 60.9389 72.8161 60.7507C72.8346 60.3358 72.8346 59.921 72.818 59.508C73.2856 59.5434 73.752 59.5938 74.2165 59.6592C74.2616 59.7966 74.3041 59.9349 74.3437 60.074C74.1197 60.523 73.8874 60.9664 73.6421 61.396ZM70.1833 56.5746C70.2791 56.8429 70.3621 57.1167 70.4331 57.3941C70.34 57.3975 70.2469 57.4015 70.1538 57.4061C70.0699 57.2917 69.9838 57.1789 69.8956 57.0678C69.9049 56.9775 69.9141 56.8862 69.9215 56.7958L70.1833 56.5746ZM64.6917 56.3229L65.0263 56.2344C64.9956 56.9187 64.9374 57.6014 64.8521 58.281C64.6953 57.891 64.5229 57.5066 64.3377 57.1286C64.4667 56.865 64.5847 56.5958 64.6917 56.3229ZM60.8382 57.7389C61.0189 57.6569 61.2005 57.5776 61.383 57.4992C61.4236 57.6099 61.466 57.7205 61.5103 57.8311C61.3142 58.1082 61.1078 58.3779 60.8917 58.6396C60.8651 58.34 60.8473 58.0396 60.8382 57.7389ZM58.8248 58.7382C58.8737 59.3356 58.953 59.9302 59.0627 60.5202L59.0701 60.5599C58.6119 60.9845 58.1371 61.3907 57.6467 61.7777C57.3776 61.1441 57.1548 60.4919 56.9802 59.8261C57.5821 59.442 58.1974 59.0791 58.8248 58.7382ZM57.3056 53.4854C57.3091 53.3994 57.3113 53.3133 57.312 53.2273C57.5278 53.0125 57.7416 52.7958 57.9527 52.5773C58.3768 52.8963 58.7861 53.2393 59.1798 53.608L59.1364 53.8034C58.8405 53.785 58.5474 53.7546 58.2607 53.7122C57.9363 53.6646 57.6167 53.5887 57.3056 53.4854ZM57.0382 55.5688C57.3342 55.649 57.6402 55.7126 57.9564 55.7597C58.2459 55.803 58.5372 55.8353 58.8304 55.8574C58.8147 56.0445 58.8018 56.2326 58.7917 56.4206C58.0213 56.8074 57.2663 57.2241 56.5285 57.6698C56.5117 57.5637 56.4963 57.4573 56.4824 57.3508C56.7128 56.7802 56.9009 56.1856 57.0382 55.5688ZM54.2689 55.9818C54.2892 56.3321 54.3187 56.6843 54.3574 57.0355C54.3169 57.1213 54.2745 57.2061 54.2321 57.2909C54.0265 57.0365 53.808 56.7894 53.5775 56.5488C53.808 56.3635 54.0385 56.1745 54.2689 55.9818ZM50.6598 52.1883C50.5538 52.392 50.4459 52.5958 50.3371 52.7986L50.3261 52.806C49.9478 52.9033 49.5672 52.9918 49.1848 53.0715C49.2052 52.9358 49.2267 52.8003 49.2493 52.6649C49.7079 52.4737 50.1792 52.3144 50.6598 52.1883ZM50.5685 49.632C50.8681 49.6716 51.165 49.7186 51.4581 49.773L51.495 49.9011C51.0995 49.9659 50.7068 50.0465 50.3178 50.1427C50.409 49.9703 50.4929 49.7988 50.5685 49.632ZM47.9504 49.4697C47.8375 49.7832 47.7345 50.1002 47.6416 50.4202C47.5097 50.5667 47.3742 50.6967 47.236 50.8073C46.9124 51.0636 46.645 51.154 46.4321 51.154C46.2385 51.154 45.9361 51.0802 45.5222 50.6893C45.29 50.4747 45.1175 50.2034 45.0216 49.9021C45.9066 49.6246 46.8866 49.4771 47.9504 49.4697ZM43.0755 55.697C41.9723 55.6463 40.8764 55.4901 39.8029 55.2305L39.7503 55.3918C39.24 56.9446 39.1026 58.5957 39.3493 60.2114C39.6194 59.7753 39.9098 59.3513 40.2251 58.953C40.8566 58.1547 41.6097 57.431 42.515 56.9065C42.6893 56.4879 42.8773 56.0842 43.0755 55.697ZM36.2306 62.1095C35.223 61.3536 34.4376 60.2713 33.7803 58.9954C33.8632 59.7753 33.9739 60.546 34.1186 61.302C34.8238 61.6062 35.5346 61.8745 36.2306 62.1095ZM34.7399 63.7781C35.0958 64.8936 35.5973 65.8413 36.2878 66.5825C36.5689 65.8477 36.8842 65.1526 37.1617 64.5562C36.8925 64.4833 36.6245 64.4058 36.3578 64.3239C35.8135 64.1568 35.274 63.9754 34.7399 63.7781ZM38.1877 67.8869C38.1373 67.8662 38.0872 67.8447 38.0375 67.8224C38.3417 66.9392 38.7317 66.0865 39.0884 65.3223C39.2018 65.5066 39.3189 65.6873 39.4415 65.8662C38.9252 66.506 38.5104 67.1817 38.1877 67.8869ZM31.8388 60.1736C31.4654 57.4356 31.4571 54.6239 31.5862 51.9873C30.1195 53.49 28.8759 55.189 27.9374 57.0475C28.9358 58.2653 30.3159 59.3089 31.8388 60.1736ZM55.1604 81.314C55.702 81.1233 56.2227 80.8781 56.7147 80.5821C56.9544 81.043 57.2475 81.4689 57.5757 81.8635C56.5239 82.5017 55.384 82.9816 54.1924 83.2878L54.1675 83.2942C54.5263 82.6485 54.8576 81.9878 55.1604 81.314ZM52.592 81.8589C52.512 82.0105 52.43 82.1611 52.3459 82.3106C52.2582 82.1738 52.1749 82.0342 52.0961 81.8921C52.262 81.8847 52.427 81.8736 52.592 81.8589ZM54.504 77.2808C54.245 78.0652 53.9581 78.84 53.6439 79.604C53.2841 79.6877 52.9192 79.7478 52.5515 79.7837C52.5856 79.6381 52.6179 79.4943 52.6464 79.3541C52.8769 78.2433 52.9599 77.1121 52.9543 75.9874L53.1387 76.0529C53.301 76.2769 53.4964 76.4889 53.725 76.6871C53.9749 76.9047 54.2348 77.102 54.504 77.2808ZM35.6083 71.6177C35.6581 71.8242 35.7217 72.0289 35.8001 72.2299C36.1486 73.1167 36.8105 73.9612 37.4668 74.6664L37.4724 74.6977C35.6233 74.0923 33.871 73.2239 32.2693 72.1193C33.3663 72.0114 34.4929 71.8685 35.6083 71.6177ZM39.5392 70.3834C39.6572 70.4018 39.7752 70.4184 39.8941 70.4341C39.8987 70.9227 39.9144 71.4039 39.9402 71.8768C39.9596 72.2538 39.9891 72.6263 40.0269 72.9941C39.848 73.2615 39.6821 73.5353 39.5291 73.8146C39.4948 73.7809 39.4607 73.7471 39.4267 73.7132C39.3834 73.326 39.3576 72.9333 39.3512 72.5332C39.3373 71.7818 39.3972 71.0655 39.5392 70.3834ZM41.9684 70.7245C41.9669 70.6569 41.9657 70.5893 41.9647 70.5216L42.2016 70.5115C42.123 70.5818 42.0452 70.6522 41.9684 70.7245ZM42.1795 73.5472C42.5501 73.0725 42.9723 72.6161 43.4369 72.1856C43.5503 73.243 43.7245 74.2921 43.9633 75.3209C43.4962 75.4002 43.0244 75.4489 42.551 75.4666C42.395 74.8334 42.271 74.1928 42.1795 73.5472ZM45.9564 74.7521C45.7354 73.7722 45.5747 72.7796 45.4752 71.78C46.2323 72.465 47.0499 73.08 47.9181 73.6173C47.3176 74.0812 46.6579 74.4628 45.9564 74.7521ZM44.5201 77.3242C44.3754 77.3518 44.2306 77.3758 44.085 77.3979C44.2758 77.5178 44.4685 77.633 44.663 77.7455C44.614 77.6055 44.5664 77.465 44.5201 77.3242ZM47.4609 79.0988C47.0936 78.3414 46.7773 77.5604 46.5141 76.7609C47.7525 76.2906 48.8905 75.5899 49.8679 74.6959C49.9527 74.7374 50.0366 74.7789 50.1223 74.8185C50.063 74.9394 50.0052 75.0611 49.949 75.1836C49.315 76.5646 49.0647 78.0909 49.2244 79.6021C48.6242 79.4812 48.0345 79.3129 47.4609 79.0988ZM49.0152 81.6699C49.229 81.7095 49.4438 81.7446 49.6605 81.775C49.5884 81.9204 49.5116 82.0633 49.43 82.2036C49.2879 82.0284 49.1496 81.8502 49.0152 81.669V81.6699ZM41.1055 77.8671C40.9303 77.7362 40.757 77.6044 40.5855 77.4707C40.5505 77.4669 40.5155 77.4629 40.4805 77.4588L40.474 77.5076C40.8986 78.4406 41.4235 79.3247 42.0393 80.1442C41.6868 79.4027 41.3751 78.6426 41.1055 77.8671ZM42.621 85.7234C40.4178 85.3104 38.2892 84.6088 36.3606 83.5865C31.8849 81.2145 28.9552 77.066 27.2211 72.4484C26.1859 72.4443 25.1522 72.3688 24.1273 72.2225C23.8518 72.1712 23.5789 72.1066 23.3096 72.0289L23.1317 71.9828C22.7473 71.8814 22.3269 71.7772 21.9259 71.7099C21.5295 71.6445 21.2299 71.6288 21.0381 71.6528C21.0049 71.8058 20.9828 72.0031 20.9745 72.2502C20.9662 72.4742 20.969 72.6484 20.9708 72.8356C20.9727 72.9803 20.9745 73.1305 20.9708 73.3186C20.9487 74.8738 21.0326 76.3147 21.4022 77.7464C22.8044 83.1854 26.0577 86.9928 31.447 88.6595C33.8531 89.4026 36.4251 89.5989 39.0082 89.4892C41.9472 89.3666 44.9147 89.0071 47.3189 87.7008C46.984 87.3611 46.6602 87.0106 46.3482 86.6498C46.2141 86.569 46.0807 86.487 45.9481 86.4037C45.264 86.4061 44.5821 86.3259 43.9172 86.1649C43.4563 86.0525 43.023 85.905 42.621 85.7234ZM58.3916 32.5929C57.3806 31.8296 56.3175 31.1377 55.2102 30.5224C57.784 31.0368 60.097 31.7245 62.7972 32.8824C63.3748 33.1295 63.9437 33.3967 64.5027 33.6835C64.0449 33.9025 63.6219 34.1877 63.2471 34.5298C62.7318 35.0107 62.2796 35.555 61.9011 36.1495C60.9488 34.7464 59.7098 33.5784 58.3916 32.5929ZM45.5545 58.1233L45.4964 58.1261C45.2239 58.1394 44.9532 58.1779 44.6879 58.2413C44.339 58.8811 44.0272 59.5404 43.754 60.216C44.0896 60.0869 44.4233 59.9477 44.7533 59.8012C44.9857 59.225 45.253 58.6645 45.5545 58.1233ZM43.9725 62.3824C43.9707 62.3843 43.9697 62.3852 43.9679 62.3852C43.754 62.482 43.5438 62.5871 43.3355 62.6977L43.3383 62.5594C43.554 62.4893 43.7688 62.4156 43.9827 62.3391L43.9734 62.3833L43.9725 62.3824ZM46.504 56.0749C46.6165 56.0842 46.728 56.0943 46.8386 56.1081L46.846 55.8878C46.7279 55.9417 46.6129 56.0043 46.504 56.0749ZM51.7338 54.5612C52.3229 54.385 52.9029 54.1795 53.4715 53.9454C52.9774 54.3685 52.4787 54.7788 51.9808 55.177C51.8416 55.0802 51.6978 54.9834 51.5503 54.8913L51.7338 54.5612ZM66.1611 63.3098C66.21 63.2001 66.2579 63.0923 66.3031 62.9853L66.1261 63.0591L66.1611 63.3098ZM68.1072 65.6993C67.8187 65.7141 67.5356 65.7122 67.2572 65.6956C67.768 64.8438 68.1533 63.9431 68.4382 63.2444C68.5811 62.8959 68.7129 62.5391 68.8346 62.175C69.3047 62.0717 69.7205 62.0284 70.092 62.0367C70.2118 62.5382 70.2902 63.0508 70.3206 63.5698C70.1731 64.1681 69.9924 64.759 69.7832 65.3343C69.2492 65.5498 68.6825 65.6732 68.1072 65.6993ZM35.365 57.525C34.5884 55.8608 34.08 54.0842 33.8586 52.2611C34.7389 52.97 35.6916 53.584 36.7008 54.0929C37.0741 54.28 37.4512 54.4488 37.8319 54.5999L37.7812 54.7539C37.1957 56.5364 37.0201 58.4281 37.2677 60.2879C36.58 59.7007 35.9587 58.7982 35.365 57.525ZM53.9887 68.4991C54.2496 68.5378 54.5003 68.5968 54.7409 68.6742C54.5796 68.8337 54.4201 68.995 54.2616 69.1582C53.9647 68.9314 53.6771 68.688 53.3978 68.4327C53.5969 68.4483 53.7942 68.4705 53.9887 68.4991ZM59.4489 67.2674C59.5079 67.308 59.5688 67.3485 59.6296 67.3873L59.5614 67.5099C59.3319 67.5799 59.1023 67.6546 58.8746 67.7357C59.0655 67.5772 59.2572 67.4214 59.4489 67.2674ZM49.8255 68.7627C49.9232 68.7387 50.0209 68.7166 50.1196 68.6936C50.1509 68.9452 50.1795 69.1905 50.2072 69.4283L50.2348 69.668C50.2152 69.6587 50.1958 69.6488 50.1767 69.6385C49.9352 69.5048 49.8449 69.3675 49.831 69.1204C49.8247 69.0013 49.8228 68.882 49.8255 68.7627Z" fill="#1D2939"/>
<path fill-rule="evenodd" clip-rule="evenodd" d="M80.2736 24.1809C80.5451 24.1411 80.8213 24.2106 81.0415 24.3743C81.2617 24.538 81.4079 24.7825 81.448 25.0539C81.5651 25.8559 81.8537 27.0968 82.1735 28.3929C82.2731 28.7958 82.3754 29.2042 82.475 29.6006C82.687 30.4496 82.888 31.248 83.0189 31.8361C83.0693 32.1004 83.0148 32.3738 82.8671 32.5986C82.7194 32.8234 82.49 32.9818 82.2275 33.0404C81.9649 33.099 81.6899 33.0531 81.4607 32.9125C81.2314 32.7719 81.0658 32.5475 80.9991 32.2869C80.8335 31.5698 80.6592 30.8547 80.4764 30.1417C80.375 29.7389 80.2699 29.3167 80.1648 28.8889C79.8486 27.6103 79.5342 26.2708 79.3996 25.3544C79.3598 25.0828 79.4295 24.8065 79.5934 24.5862C79.7573 24.366 80.0019 24.2208 80.2736 24.1809ZM91.0789 26.8027C91.5121 27.1751 91.561 27.8288 91.1895 28.262L86.0915 34.1869C86.0029 34.29 85.8949 34.3745 85.7736 34.4358C85.6523 34.4971 85.5201 34.5338 85.3846 34.544C85.2491 34.5542 85.1129 34.5376 84.9838 34.4952C84.8547 34.4527 84.7352 34.3852 84.6322 34.2966C84.5292 34.208 84.4446 34.1 84.3833 33.9787C84.3221 33.8574 84.2853 33.7252 84.2751 33.5897C84.2649 33.4542 84.2815 33.318 84.324 33.1889C84.3664 33.0598 84.4339 32.9403 84.5225 32.8373L89.6205 26.9124C89.7992 26.7044 90.0533 26.5759 90.3267 26.5551C90.6002 26.5344 90.8708 26.624 91.0789 26.8027ZM88.3815 35.7827C88.2489 35.8127 88.1235 35.8684 88.0125 35.9468C87.9015 36.0253 87.807 36.1248 87.7345 36.2397C87.6619 36.3546 87.6127 36.4827 87.5897 36.6166C87.5666 36.7506 87.5702 36.8877 87.6002 37.0203C87.6301 37.1529 87.6859 37.2782 87.7643 37.3892C87.8427 37.5002 87.9422 37.5947 88.0572 37.6673C88.1721 37.7398 88.3002 37.789 88.4341 37.8121C88.568 37.8351 88.7052 37.8316 88.8378 37.8016C89.236 37.7113 89.8362 37.4946 90.464 37.2485C91.1852 36.9641 91.9028 36.6706 92.6165 36.3681C92.9696 36.2206 93.3162 36.0731 93.6463 35.933C94.7479 35.4665 95.6744 35.0747 96.0782 34.9373C96.3272 34.8412 96.5296 34.6527 96.6429 34.411C96.7562 34.1693 96.7718 33.8931 96.6864 33.6402C96.601 33.3873 96.4212 33.1771 96.1845 33.0536C95.9478 32.9301 95.6726 32.9028 95.4163 32.9774C94.9314 33.1406 93.8841 33.584 92.7604 34.0606L91.8136 34.4607C91.0724 34.7723 90.3367 35.0784 89.7117 35.3208C89.0646 35.5734 88.6055 35.7329 88.3815 35.7827Z" fill="#F49819"/>
</g>
</g>
<defs>
<clipPath id="clip0_1_192">
<rect width="118" height="118" fill="white" transform="translate(0.199219)"/>
</clipPath>
</defs>
</svg>
