<svg width="15" height="15" viewBox="0 0 15 15" fill="none" xmlns="http://www.w3.org/2000/svg">
<g clip-path="url(#clip0_1_292)">
<path d="M1.49713 12.7053C1.49713 12.8908 1.65148 13.0607 1.85214 13.0607H12.7805C12.9657 13.0607 13.1355 12.9062 13.1355 12.7053V5.7209H1.49713V12.7053ZM0.308594 12.7053V3.26399C0.308594 2.41412 1.00319 1.73422 1.83671 1.73422H3.55005V0.791633C3.55005 0.482588 3.79702 0.235352 4.10573 0.235352H5.00099C5.3097 0.235352 5.55666 0.482588 5.55666 0.791633V1.73422H9.07596V0.791633C9.07596 0.482588 9.32293 0.235352 9.63164 0.235352H10.5115C10.8202 0.235352 11.0671 0.482588 11.0671 0.791633V1.73422H12.7805C13.6294 1.73422 14.3086 2.42957 14.3086 3.26399V12.7053C14.3086 13.5552 13.614 14.2351 12.7805 14.2351H1.85214C1.00319 14.2506 0.308594 13.5552 0.308594 12.7053Z" fill="#757095"/>
</g>
<defs>
<clipPath id="clip0_1_292">
<rect width="14" height="14" fill="white" transform="translate(0.308594 0.235352)"/>
</clipPath>
</defs>
</svg>
