<svg width="27" height="27" viewBox="0 0 27 27" fill="none" xmlns="http://www.w3.org/2000/svg">
<g clip-path="url(#clip0_1_134)">
<path d="M24.4758 26.0277C24.8664 26.4183 25.4995 26.4183 25.89 26.0277C26.2806 25.6372 26.2806 25.0041 25.89 24.6135L24.4758 26.0277ZM19.9771 11.301C19.9771 16.1687 16.031 20.1148 11.1633 20.1148V22.1148C17.1356 22.1148 21.9771 17.2733 21.9771 11.301H19.9771ZM11.1633 20.1148C6.29565 20.1148 2.34961 16.1687 2.34961 11.301H0.349609C0.349609 17.2733 5.19108 22.1148 11.1633 22.1148V20.1148ZM2.34961 11.301C2.34961 6.43334 6.29565 2.4873 11.1633 2.4873V0.487305C5.19108 0.487305 0.349609 5.32877 0.349609 11.301H2.34961ZM11.1633 2.4873C16.031 2.4873 19.9771 6.43334 19.9771 11.301H21.9771C21.9771 5.32877 17.1356 0.487305 11.1633 0.487305V2.4873ZM17.466 19.0179L24.4758 26.0277L25.89 24.6135L18.8802 17.6037L17.466 19.0179Z" fill="#1D2939"/>
</g>
<defs>
<clipPath id="clip0_1_134">
<rect width="26" height="26" fill="white" transform="translate(0.265625 0.404297)"/>
</clipPath>
</defs>
</svg>
