<svg width="49" height="49" viewBox="0 0 49 49" fill="none" xmlns="http://www.w3.org/2000/svg">
<rect x="0.765625" y="0.5" width="48" height="48" rx="24" fill="#F7FBFF"/>
<path d="M14.8628 22.9625C14.5612 22.6911 14.1541 22.5855 13.6414 22.6458C13.1287 22.7061 12.7065 22.8871 12.3748 23.1886C12.0431 23.4902 11.8697 23.8823 11.8546 24.3648C11.8395 24.8473 11.9828 25.2393 12.2843 25.5409L19.6577 33.2762C19.9894 33.5777 20.3739 33.7285 20.8112 33.7285C21.2485 33.7285 21.6179 33.5777 21.9195 33.2762L37.2996 18.2127C37.6011 17.9112 37.7218 17.5116 37.6614 17.014C37.6011 16.5164 37.4126 16.1018 37.096 15.77C36.7793 15.4383 36.3496 15.2724 35.8068 15.2724C35.264 15.2724 34.8418 15.4383 34.5402 15.77L20.8791 29.2954L14.8628 22.9625Z" fill="#1D2939"/>
</svg>
